<?xml version="1.0" standalone="no"?><!DOCTYPE svg PUBLIC "-//W3C//DTD SVG 1.1//EN" "http://www.w3.org/Graphics/SVG/1.1/DTD/svg11.dtd"><svg class="icon"  viewBox="0 0 1024 1024" version="1.1" xmlns="http://www.w3.org/2000/svg"><path d="M507.25122 258.436847c10.00336 0 20.008767 1.141632 29.738749 3.39418 43.904203 10.163086 80.636089 42.51479 103.429824 91.096101 11.806422 25.16403 19.225495 53.199034 22.050394 83.325836 2.978482 31.761947 0.675764 64.337882-6.843649 96.822692-13.048395 56.37103-41.120259 107.193626-79.043947 143.10538-35.284112 33.41245-76.826211 51.813717-116.972755 51.813717-10.004384 0-20.010815-1.141632-29.740797-3.39418-43.904203-10.163086-80.636089-42.51479-103.429824-91.096102-11.806422-25.16403-19.225495-53.199034-22.051418-83.325835-2.978482-31.761947-0.675764-64.337882 6.843649-96.822692 13.048395-56.370007 41.120259-107.192602 79.043947-143.104356 35.284112-33.41245 76.826211-51.813717 116.973779-51.814741h0.002048m-0.002048-46.437295c-106.820932 0.002048-209.834035 95.126114-241.259123 230.885117-35.363975 152.777001 33.318252 299.160862 153.406691 326.958325a177.99632 177.99632 0 0 0 40.213096 4.590077c106.820932 0 209.834035-95.126114 241.259123-230.885116 35.363975-152.777001-33.318252-299.160862-153.406691-326.958325a177.936935 177.936935 0 0 0-40.213096-4.590078z"  /><path d="M652.022461 670.269122l1.772346-30.038748a164.790247 164.790247 0 0 0-1.772346 30.038748zM700.023229 645.151167c-1.466204 8.671285-1.973027 17.34257-1.525589 25.858224l1.525589-25.858224z"  /><path d="M510.807174 64.44539c-245.976163 0.786344-445.237557 200.002688-446.093526 445.963492-0.864159 248.192874 198.842626 448.866207 447.036524 449.147776 35.696738 0.039932 70.418737-4.099637 103.705249-11.955909 10.512231-2.480874 17.972259-11.814613 17.972259-22.616603 0-15.014254-14.024157-26.011807-28.637049-22.560289-30.094037 7.108836-61.029709 10.695506-92.523397 10.695506-54.171725 0-106.697042-10.599261-156.119986-31.502904-47.759131-20.200234-90.661974-49.12909-127.514679-85.981794-36.852704-36.852704-65.78156-79.755547-85.981794-127.514678-20.903643-49.421921-31.502904-101.948262-31.502904-156.119987s10.599261-106.697042 31.502904-156.118963c20.200234-47.759131 49.12909-90.661974 85.981794-127.514678 36.852704-36.852704 79.755547-65.78156 127.514679-85.981794 49.421921-20.903643 101.948262-31.502904 156.119986-31.502904s106.697042 10.599261 156.119987 31.502904c47.759131 20.200234 90.661974 49.12909 127.514678 85.981794 36.852704 36.852704 65.78156 79.755547 85.981794 127.514678 20.903643 49.421921 31.502904 101.948262 31.502904 156.118963 0 20.862687-1.578831 41.480666-4.705777 61.772026-4.993489 32.395732-13.94327 63.959045-26.797127 94.346937a402.258947 402.258947 0 0 1-15.066473 31.6442 399.561009 399.561009 0 0 1-4.685299 8.587326c-7.12317 11.873998-16.172269 22.240837-26.878013 30.631577-16.555202 12.974675-36.084791 20.119347-54.990833 20.119347a75.938503 75.938503 0 0 1-22.736398-3.48121c-21.750396-6.818052-39.415489-23.119331-49.738301-45.90078-5.477786-12.08799-8.581183-25.202937-9.290736-38.710032-0.447438-8.515654 0.059385-17.187963 1.525589-25.858224l6.109524-103.540403 18.192395-308.310302-46.357432-2.735821-24.172909 409.666757-1.772346 30.038748c1.099653 33.119619 12.315293 64.101365 31.430208 88.061305 15.351113 19.241877 35.791959 33.955109 60.185004 41.601485a122.152591 122.152591 0 0 0 42.099092 5.483929c46.326715-2.047771 90.611803-29.950694 116.746477-74.088342a166.299454 166.299454 0 0 0 5.424544-9.918377c33.717568-63.570992 52.566273-136.23511 51.900747-213.362343-2.131729-246.78708-202.206089-444.390804-449.001359-443.602413z"  /></svg>