<?xml version="1.0" standalone="no"?><!DOCTYPE svg PUBLIC "-//W3C//DTD SVG 1.1//EN" "http://www.w3.org/Graphics/SVG/1.1/DTD/svg11.dtd"><svg class="icon" viewBox="0 0 1024 1024" version="1.1" xmlns="http://www.w3.org/2000/svg"><path  d="M865.6 595.8c16 0 29-13 29-29V459.3c0-41.2-26.6-76.3-63.5-89l-0.3-0.3-199.9-199.9c-1.4-1.4-3-2.7-4.6-3.7-18.9-41.1-60.5-69.7-108.6-69.7-50.4 0-93.6 31.4-111.2 75.7L213 365.9c-46.4 5.9-82.3 45.5-82.3 93.4v373.1c0 51.9 42.3 94.2 94.2 94.2h575.6c51.9 0 94.2-42.3 94.2-94.2V691.2c0-16-13-29-29-29s-29 13-29 29v141.3c0 20-16.3 36.2-36.2 36.2H224.8c-20 0-36.2-16.3-36.2-36.2V459.3c0-20 16.3-36.2 36.2-36.2h575.6c20 0 36.2 16.3 36.2 36.2v107.5c0 16 13 29 29 29z m-347.9-260c53.2 0 98.4-34.9 113.8-83.1L744 365.2H295.7L405 255.9c16.4 46.5 60.7 79.9 112.7 79.9z m0-181.2c34 0 61.6 27.6 61.6 61.6s-27.6 61.6-61.6 61.6-61.6-27.6-61.6-61.6 27.7-61.6 61.6-61.6z"  /><path  d="M557.6 482.7L438 547.6h-47c-33.5 0-60.8 27.1-60.8 60.5v56.2c0 33.4 27.3 60.5 60.8 60.5h41.3l126 64.5c4.2 2.1 8.7 3.2 13.2 3.2 5.3 0 10.5-1.4 15.1-4.3 8.6-5.3 13.9-14.6 13.9-24.7V508.2c0-10.2-5.4-19.7-14.2-24.9-8.8-5.2-19.7-5.5-28.7-0.6z m-15.1 233.4l-90-46.1c-4.1-2.1-8.6-3.2-13.2-3.2h-48.2c-1.5 0-2.8-1.2-2.8-2.6V608c0-1.3 1.3-2.6 2.8-2.6h42.3c3.2 0 6.6 0.1 12 0.1 4.8 0 9.6-1.2 13.8-3.5l83.4-45.2v159.3zM637 588.7v94.2c0 16 13 29 29 29s29-13 29-29v-94.2c0-16-13-29-29-29s-29 13-29 29z"  /></svg>