<?xml version="1.0" standalone="no"?><!DOCTYPE svg PUBLIC "-//W3C//DTD SVG 1.1//EN" "http://www.w3.org/Graphics/SVG/1.1/DTD/svg11.dtd"><svg class="icon" viewBox="0 0 1024 1024" version="1.1" xmlns="http://www.w3.org/2000/svg"><path  d="M915 866.8H111.6c-16.6 0-30.1 13.5-30.1 30.1S95 927 111.6 927H915c16.6 0 30.1-13.5 30.1-30.1-0.1-16.6-13.5-30.1-30.1-30.1zM122.9 817.6h127.8c20.7 0 37.6-16.9 37.6-37.6V444.6c0-20.7-16.9-37.6-37.6-37.6H122.9c-20.7 0-37.6 16.9-37.6 37.6V780c0 20.8 16.8 37.6 37.6 37.6z m22.5-350.5h82.7v290.3h-82.7V467.1zM907.4 316.8H779.7c-20.7 0-37.6 16.9-37.6 37.6V780c0 20.7 16.9 37.6 37.6 37.6h127.8c20.7 0 37.6-16.9 37.6-37.6V354.4c-0.1-20.7-16.9-37.6-37.7-37.6z m-22.5 440.7h-82.7V376.9h82.7v380.6zM449.2 817.6H577c20.7 0 37.6-16.9 37.6-37.6V346.9c0-16.6-13.5-30.1-30.1-30.1s-30.1 13.5-30.1 30.1v410.6h-82.7V157.1h82.7v58.1c0 16.6 13.5 30.1 30.1 30.1s30.1-13.5 30.1-30.1v-80.6c0-20.7-16.9-37.6-37.6-37.6H449.2c-20.7 0-37.6 16.9-37.6 37.6V780c0 20.8 16.9 37.6 37.6 37.6z" /></svg>