<?xml version="1.0" standalone="no"?><!DOCTYPE svg PUBLIC "-//W3C//DTD SVG 1.1//EN" "http://www.w3.org/Graphics/SVG/1.1/DTD/svg11.dtd"><svg class="icon" width="20px" height="19.98px" viewBox="0 0 1025 1024" version="1.1" xmlns="http://www.w3.org/2000/svg"><path d="M512 1024c-134.9632 0-265.3184-51.2-363.0592-148.9408C55.8592 777.3184 0 646.9632 0 512c0-139.6224 55.8592-265.3184 148.9408-363.0592C246.6816 51.2 377.0368 0 512 0s265.3184 51.2 363.0592 148.9408c200.1408 200.1408 200.1408 525.9776 0 726.1184C777.3184 968.1408 651.6224 1024 512 1024z m0-958.8224c-121.0368 0-232.704 46.5408-316.5184 130.304C116.3776 279.296 69.8368 390.9632 69.8368 512s46.5408 232.704 130.304 316.5184 195.4816 130.304 316.5184 130.304 232.704-46.5408 316.5184-130.304c172.2368-172.2368 172.2368-456.1408 0-628.3776-88.4736-88.4224-200.1408-134.9632-321.1776-134.9632zM330.496 651.6224s60.5184 97.7408 181.504 97.7408 200.1408-97.7408 200.1408-97.7408 46.5408 0 46.5408 46.5408c0 0-79.104 111.7184-246.6816 111.7184s-223.4368-111.7184-223.4368-111.7184 0-46.5408 41.9328-46.5408z m32.5632-307.2c-32.5632 0-60.5184 27.904-60.5184 65.1776 0 32.5632 27.904 60.5184 60.5184 60.5184S423.5776 442.1632 423.5776 409.6c4.6592-37.2224-23.296-65.1776-60.5184-65.1776z m321.1776 0c-32.5632 0-60.5184 27.904-60.5184 60.5184s27.904 60.5184 60.5184 60.5184c32.5632 0 60.5184-27.904 60.5184-60.5184 4.608-32.5632-23.296-60.5184-60.5184-60.5184z"  /></svg>