<?xml version="1.0" standalone="no"?><!DOCTYPE svg PUBLIC "-//W3C//DTD SVG 1.1//EN" "http://www.w3.org/Graphics/SVG/1.1/DTD/svg11.dtd"><svg class="icon" width="20px" height="20.00px" viewBox="0 0 1024 1024" version="1.1" xmlns="http://www.w3.org/2000/svg"><path d="M708.5 616.9c12.5-12.5 12.5-32.8 0-45.3s-32.7-12.5-45.2 0l-77.6 77.7c-0.4 0.4-0.7 0.8-1.1 1.2-0.2 0.2-0.3 0.4-0.5 0.5-0.2 0.2-0.4 0.4-0.5 0.6-0.2 0.2-0.4 0.5-0.6 0.7-0.1 0.2-0.3 0.3-0.4 0.5-0.2 0.3-0.4 0.5-0.6 0.8-0.1 0.2-0.2 0.3-0.3 0.5l-0.6 0.9c-0.1 0.2-0.2 0.3-0.3 0.5-0.2 0.3-0.3 0.6-0.5 0.9-0.1 0.2-0.2 0.3-0.3 0.5-0.1 0.3-0.3 0.5-0.4 0.8l-0.3 0.6c-0.1 0.3-0.2 0.5-0.3 0.8-0.1 0.2-0.2 0.5-0.3 0.7-0.1 0.2-0.2 0.5-0.3 0.7-0.1 0.3-0.2 0.5-0.3 0.8-0.1 0.2-0.1 0.4-0.2 0.6l-0.3 0.9c-0.1 0.2-0.1 0.4-0.2 0.5-0.1 0.3-0.2 0.7-0.3 1 0 0.2-0.1 0.3-0.1 0.5-0.1 0.3-0.2 0.7-0.2 1 0 0.2-0.1 0.3-0.1 0.5-0.1 0.3-0.1 0.7-0.2 1 0 0.2-0.1 0.4-0.1 0.6 0 0.3-0.1 0.6-0.1 0.9 0 0.3 0 0.5-0.1 0.8 0 0.3 0 0.5-0.1 0.8v3.2c0 0.2 0 0.5 0.1 0.7 0 0.3 0 0.5 0.1 0.8 0 0.3 0.1 0.6 0.1 0.9 0 0.2 0 0.4 0.1 0.6 0 0.3 0.1 0.7 0.2 1 0 0.2 0.1 0.3 0.1 0.5 0.1 0.3 0.1 0.7 0.2 1 0 0.2 0.1 0.3 0.1 0.5 0.1 0.3 0.2 0.6 0.3 1 0.1 0.2 0.1 0.4 0.2 0.5l0.3 0.9c0.1 0.2 0.1 0.4 0.2 0.6 0.1 0.3 0.2 0.5 0.3 0.8 0.1 0.2 0.2 0.5 0.3 0.7 0.1 0.2 0.2 0.5 0.3 0.7 0.1 0.3 0.2 0.5 0.3 0.8l0.3 0.6c0.1 0.3 0.3 0.6 0.4 0.8 0.1 0.2 0.2 0.3 0.3 0.5 0.2 0.3 0.3 0.6 0.5 0.9 0.1 0.2 0.2 0.3 0.3 0.4l0.6 0.9c0.1 0.1 0.2 0.3 0.3 0.4 0.2 0.3 0.4 0.6 0.6 0.8 0.1 0.2 0.3 0.3 0.4 0.5 0.2 0.2 0.4 0.5 0.6 0.7 0.2 0.2 0.4 0.4 0.5 0.6 0.2 0.2 0.3 0.4 0.5 0.5 0.7 0.8 1.5 1.5 2.2 2.2 0.2 0.2 0.4 0.3 0.6 0.5 0.2 0.2 0.4 0.4 0.6 0.5 0.2 0.2 0.5 0.4 0.7 0.6 0.2 0.1 0.3 0.3 0.5 0.4 0.3 0.2 0.6 0.4 0.8 0.6 0.1 0.1 0.3 0.2 0.4 0.3l0.9 0.6c0.1 0.1 0.3 0.2 0.4 0.3 0.3 0.2 0.6 0.3 0.9 0.5 0.2 0.1 0.3 0.2 0.5 0.3 0.3 0.2 0.6 0.3 0.8 0.4l0.6 0.3c0.3 0.1 0.5 0.2 0.8 0.4 0.2 0.1 0.4 0.2 0.7 0.3 0.2 0.1 0.5 0.2 0.7 0.3 0.3 0.1 0.5 0.2 0.8 0.3 0.2 0.1 0.4 0.1 0.6 0.2l0.9 0.3c0.2 0.1 0.4 0.1 0.6 0.2 0.3 0.1 0.6 0.2 1 0.3 0.2 0 0.3 0.1 0.5 0.1 0.3 0.1 0.7 0.2 1 0.2 0.2 0 0.4 0.1 0.5 0.1 0.3 0.1 0.7 0.1 1 0.2 0.2 0 0.4 0.1 0.6 0.1 0.3 0 0.6 0.1 0.9 0.1 0.3 0 0.5 0 0.8 0.1 0.2 0 0.5 0 0.7 0.1H928c17.7 0 32-14.3 32-32s-14.3-32-32-32H685.4l23.1-23.1zM960 769.4c0-0.2 0-0.5-0.1-0.7 0-0.3 0-0.5-0.1-0.8 0-0.3-0.1-0.6-0.1-0.9 0-0.2 0-0.4-0.1-0.6 0-0.3-0.1-0.7-0.2-1 0-0.2-0.1-0.3-0.1-0.5-0.1-0.3-0.1-0.7-0.2-1 0-0.2-0.1-0.3-0.1-0.5-0.1-0.3-0.2-0.6-0.3-1-0.1-0.2-0.1-0.4-0.2-0.5l-0.3-0.9c-0.1-0.2-0.1-0.4-0.2-0.6-0.1-0.3-0.2-0.5-0.3-0.8-0.1-0.2-0.2-0.5-0.3-0.7-0.1-0.2-0.2-0.5-0.3-0.7-0.1-0.3-0.2-0.5-0.3-0.8l-0.3-0.6c-0.1-0.3-0.3-0.6-0.4-0.8-0.1-0.2-0.2-0.3-0.3-0.5-0.2-0.3-0.3-0.6-0.5-0.9-0.1-0.2-0.2-0.3-0.3-0.4l-0.6-0.9c-0.1-0.1-0.2-0.3-0.3-0.4-0.2-0.3-0.4-0.6-0.6-0.8-0.1-0.2-0.3-0.3-0.4-0.5-0.2-0.2-0.4-0.5-0.6-0.7-0.2-0.2-0.4-0.4-0.5-0.6-0.2-0.2-0.3-0.4-0.5-0.5-0.7-0.8-1.5-1.5-2.2-2.2-0.2-0.2-0.4-0.3-0.6-0.5-0.2-0.2-0.4-0.4-0.6-0.5-0.2-0.2-0.5-0.4-0.7-0.6-0.2-0.1-0.3-0.3-0.5-0.4-0.3-0.2-0.6-0.4-0.8-0.6-0.1-0.1-0.3-0.2-0.4-0.3l-0.9-0.6c-0.1-0.1-0.3-0.2-0.4-0.3-0.3-0.2-0.6-0.3-0.9-0.5-0.2-0.1-0.3-0.2-0.5-0.3-0.3-0.2-0.6-0.3-0.8-0.4l-0.6-0.3c-0.3-0.1-0.5-0.2-0.8-0.4-0.2-0.1-0.4-0.2-0.7-0.3-0.2-0.1-0.5-0.2-0.7-0.3-0.3-0.1-0.5-0.2-0.8-0.3-0.2-0.1-0.4-0.1-0.6-0.2l-0.9-0.3c-0.2-0.1-0.4-0.1-0.6-0.2-0.3-0.1-0.6-0.2-1-0.3-0.2 0-0.3-0.1-0.5-0.1-0.3-0.1-0.7-0.2-1-0.2-0.2 0-0.4-0.1-0.5-0.1-0.3-0.1-0.7-0.1-1-0.2-0.2 0-0.4-0.1-0.6-0.1-0.3 0-0.6-0.1-0.9-0.1-0.3 0-0.5 0-0.8-0.1-0.2 0-0.5 0-0.7-0.1H608.2c-17.7 0-32 14.3-32 32s14.3 32 32 32h242.6l-23.1 23.1c-12.5 12.5-12.5 32.8 0 45.3s32.7 12.5 45.2 0l77.6-77.7c0.4-0.4 0.7-0.8 1.1-1.2 0.2-0.2 0.3-0.4 0.5-0.5 0.2-0.2 0.4-0.4 0.5-0.6 0.2-0.2 0.4-0.5 0.6-0.7 0.1-0.2 0.3-0.3 0.4-0.5 0.2-0.3 0.4-0.5 0.6-0.8 0.1-0.2 0.2-0.3 0.3-0.5l0.6-0.9c0.1-0.2 0.2-0.3 0.3-0.5 0.2-0.3 0.3-0.6 0.5-0.9 0.1-0.2 0.2-0.3 0.3-0.5 0.1-0.3 0.3-0.5 0.4-0.8l0.3-0.6c0.1-0.3 0.2-0.5 0.3-0.8 0.1-0.2 0.2-0.5 0.3-0.7 0.1-0.2 0.2-0.5 0.3-0.7 0.1-0.3 0.2-0.5 0.3-0.8 0.1-0.2 0.1-0.4 0.2-0.6l0.3-0.9c0.1-0.2 0.1-0.4 0.2-0.5 0.1-0.3 0.2-0.7 0.3-1 0-0.2 0.1-0.3 0.1-0.5 0.1-0.3 0.2-0.7 0.2-1 0-0.2 0.1-0.3 0.1-0.5 0.1-0.3 0.1-0.7 0.2-1 0-0.2 0.1-0.4 0.1-0.6 0-0.3 0.1-0.6 0.1-0.9 0-0.3 0-0.5 0.1-0.8 0-0.3 0-0.5 0.1-0.8V771c-0.1-0.5-0.1-1.1-0.1-1.6zM225.7 319.5h383.6c17.7 0 32-14.4 32-32.1 0-17.7-14.3-32.1-32-32.1H225.7c-17.7 0-32 14.4-32 32.1 0 17.8 14.3 32.1 32 32.1zM641.2 479.9c0-17.7-14.3-32.1-32-32.1H225.7c-17.7 0-32 14.4-32 32.1 0 17.7 14.3 32.1 32 32.1h383.6c17.6 0 31.9-14.4 31.9-32.1zM225.7 640.3c-17.7 0-32 14.4-32 32.1 0 17.7 14.3 32.1 32 32.1h191.8c17.7 0 32-14.4 32-32.1 0-17.7-14.3-32.1-32-32.1H225.7z"  /><path d="M607.6 864.8H159.8c-17.6 0-31.9-14.4-31.9-32.1V191.2c0-17.7 14.3-32.1 31.9-32.1h513.8c17.6 0 31.9 14.4 31.9 32.1V512c0 17.7 14.3 32.1 31.9 32.1 17.6 0 31.9-14.4 31.9-32.1V159.2c0-35.4-28.6-64.2-63.9-64.2H127.9C92.6 95 64 123.7 64 159.2v705.7c0 35.4 28.6 64.2 63.9 64.2h479.8c17.6 0 31.9-14.4 31.9-32.1 0-17.8-14.3-32.2-32-32.2z"  /></svg>