<?xml version="1.0" standalone="no"?><!DOCTYPE svg PUBLIC "-//W3C//DTD SVG 1.1//EN" "http://www.w3.org/Graphics/SVG/1.1/DTD/svg11.dtd"><svg class="icon" width="20px" height="20.00px" viewBox="0 0 1024 1024" version="1.1" xmlns="http://www.w3.org/2000/svg"><path d="M1022.44297 621.803012a36.629999 36.629999 0 0 1-73.237998-0.128l1.515-449.258987v-0.256a99.156997 99.156997 0 0 0-99.220997-99.135997h-679.18998a99.220997 99.220997 0 0 0-99.177997 99.306997v679.29598a99.220997 99.220997 0 0 0 99.199997 99.263997h449.343987a36.543999 36.543999 0 1 1 0 73.065998H171.988995A172.180995 172.180995 0 0 1 0.043 851.563005V171.989025A172.180995 172.180995 0 0 1 172.329995 0.00003h679.40198A172.329995 172.329995 0 0 1 1023.99997 172.373025zM219.562994 256.000022l585.151982 0.192a36.649999 36.649999 0 0 1 0 73.300998l-585.151982-0.213a36.649999 36.649999 0 0 1 0-73.279998z m585.151982 73.492998z m-585.151982 365.43999h146.303995a36.500999 36.500999 0 0 1 0 73.002998H219.562994a36.543999 36.543999 0 0 1 0-73.066998z m0-219.284994h219.433993a36.543999 36.543999 0 1 1 0 73.087998H219.562994a36.564999 36.564999 0 0 1 0-73.151998z m296.233991 91.732997A219.732994 219.732994 0 1 1 873.812974 822.080006l139.519996 139.519996a36.543999 36.543999 0 0 1-51.668998 51.669998l-139.519996-139.519996a219.732994 219.732994 0 0 1-306.346991-306.282991z m179.199995 273.877992a146.346996 146.346996 0 1 0-146.303996-146.346995 146.346996 146.346996 0 0 0 146.282996 146.346995z" /></svg>