<?xml version="1.0" standalone="no"?><!DOCTYPE svg PUBLIC "-//W3C//DTD SVG 1.1//EN" "http://www.w3.org/Graphics/SVG/1.1/DTD/svg11.dtd"><svg class="icon" width="20px" height="20.00px" viewBox="0 0 1024 1024" version="1.1" xmlns="http://www.w3.org/2000/svg"><path d="M738.176 115.2V43.179S735.36 0 690.432 0H376.277c-44.8 0-53.589 43.179-53.589 43.179V115.2c69.248-31.232 135.04-49.237 207.744-49.237 72.704 0 138.496 18.005 207.744 49.28"  /><path d="M533.333 111.616c-247.85 0-448.725 204.245-448.725 456.192C84.608 819.84 285.568 1024 533.291 1024c247.893 0 448.768-204.245 448.768-456.192s-200.96-456.192-448.726-456.192zM553.6 589.44a23.808 23.808 0 0 1-6.699 16.597L433.451 721.28a22.699 22.699 0 0 1-32.598 0 23.68 23.68 0 0 1 0-33.152l106.539-108.416V316.928c0-12.97 10.325-23.467 23.04-23.467 12.8 0 23.168 10.454 23.168 23.467V589.44z"  /></svg>