<?xml version="1.0" standalone="no"?><!DOCTYPE svg PUBLIC "-//W3C//DTD SVG 1.1//EN" "http://www.w3.org/Graphics/SVG/1.1/DTD/svg11.dtd"><svg class="icon" viewBox="0 0 1024 1024" version="1.1" xmlns="http://www.w3.org/2000/svg"><path  d="M927.3 432l-22.9-92.1c-3.9-15.5-19.6-25-35.1-21.2-15.5 3.9-25 19.6-21.2 35.1l12.2 49.2H166l47.6-191.5c4.6-18.4 34.8-38.8 70.9-38.8H742c36.1 0 66.3 20.5 70.9 38.8l6.1 24.4c3.9 15.5 19.6 25 35.1 21.2 15.5-3.9 25-19.6 21.2-35.1l-6.1-24.4c-11.7-47.2-66.4-82.9-127.2-82.9H284.4c-60.8 0-115.4 35.6-127.2 82.9L99 432c-1.2 4.9-1.1 9.9 0.1 14.5V790c0 66 53.7 119.7 119.7 119.7h588.7c66 0 119.7-53.7 119.7-119.7V446.6c1.2-4.6 1.4-9.6 0.1-14.6zM807.5 851.6H218.8c-34 0-61.6-27.7-61.6-61.6V461.1h711.9V790c0 34-27.6 61.6-61.6 61.6z"  /><path  d="M747 561.4H462.6c-16 0-29 13-29 29s13 29 29 29H747c16 0 29-13 29-29 0.1-16-12.9-29-29-29zM747 701.6H585.4c-16 0-29 13-29 29s13 29 29 29H747c16 0 29-13 29-29 0.1-16-12.9-29-29-29z"  /></svg>