<?xml version="1.0" standalone="no"?><!DOCTYPE svg PUBLIC "-//W3C//DTD SVG 1.1//EN" "http://www.w3.org/Graphics/SVG/1.1/DTD/svg11.dtd"><svg class="icon" viewBox="0 0 1024 1024" version="1.1" xmlns="http://www.w3.org/2000/svg"><path  d="M870.4 157.1H156c-31.9 0-57.8 25.9-57.8 57.8v461.5c0 31.9 25.9 57.8 57.8 57.8h123.1c16 0 28.9-12.9 28.9-28.9s-12.9-28.9-28.9-28.9H156V214.9h714.4v461.5h-390l-96.8 145.7c-8.8 13.3-5.2 31.2 8.1 40.1 4.9 3.3 10.5 4.8 16 4.8 9.4 0 18.5-4.5 24.1-12.9l79.6-119.9h359c31.9 0 57.8-25.9 57.8-57.8V214.9c0-31.8-26-57.8-57.8-57.8z"  /><path  d="M373.8 453.9c11.5 7.7 25.3 12.2 40.1 12.2 20.5 0 39.1-8.7 52.2-22.5l64.1 39.3c-0.2 2.1-0.3 4.1-0.3 6.2 0 39.7 32.3 72 72 72s72-32.3 72-72c0-0.5-0.1-1-0.1-1.5l61.8-59.3c7.9 3 16.5 4.7 25.4 4.7 39.7 0 72-32.3 72-72s-32.3-72-72-72-72 32.3-72 72c0 9.5 1.9 18.5 5.2 26.9L647 433.2c-12.4-10-28.1-16-45.2-16-16.5 0-31.7 5.6-43.9 15l-72.4-44.4c-3.2-36.7-34.1-65.6-71.7-65.6-39.7 0-72 32.3-72 72 0 3.5 0.3 7 0.8 10.4l-54.3 45.7c-7.3-2.5-15.1-3.9-23.2-3.9-39.7 0-72 32.3-72 72s32.3 72 72 72 72-32.3 72-72c0-10.2-2.2-19.9-6-28.7l42.7-35.8zM761 346.8c7.8 0 14.2 6.4 14.2 14.2 0 7.8-6.4 14.2-14.2 14.2s-14.2-6.4-14.2-14.2c0-7.9 6.4-14.2 14.2-14.2zM601.9 474.9c7.8 0 14.2 6.4 14.2 14.2 0 7.8-6.4 14.2-14.2 14.2s-14.2-6.4-14.2-14.2c0-7.8 6.3-14.2 14.2-14.2z m-188-95c7.8 0 14.2 6.4 14.2 14.2 0 7.8-6.4 14.2-14.2 14.2-7.8 0-14.2-6.4-14.2-14.2 0-7.8 6.4-14.2 14.2-14.2zM265.3 532.6c-7.8 0-14.2-6.4-14.2-14.2 0-7.8 6.4-14.2 14.2-14.2 7.8 0 14.2 6.4 14.2 14.2 0 7.8-6.4 14.2-14.2 14.2z"  /></svg>