<?xml version="1.0" standalone="no"?><!DOCTYPE svg PUBLIC "-//W3C//DTD SVG 1.1//EN" "http://www.w3.org/Graphics/SVG/1.1/DTD/svg11.dtd"><svg class="icon"  viewBox="0 0 1024 1024" version="1.1" xmlns="http://www.w3.org/2000/svg"><path  d="M450.4 619.2c24.6 0 49.3-9.4 68.1-28.1 18.2-18.2 28.2-42.3 28.2-68.1 0-25.7-10-49.9-28.2-68.1-37.5-37.5-98.6-37.5-136.1 0s-37.5 98.6 0 136.1c18.7 18.8 43.4 28.2 68 28.2z m-27.2-123.4c7.5-7.5 17.3-11.2 27.2-11.2 9.8 0 19.7 3.7 27.2 11.2 7.3 7.3 11.3 16.9 11.3 27.2s-4 19.9-11.3 27.2c-15 15-39.4 15-54.4 0-14.9-15-14.9-39.4 0-54.4zM593.7 661.7H314.4c-16 0-28.9 12.9-28.9 28.9s12.9 28.9 28.9 28.9h279.2c16 0 28.9-12.9 28.9-28.9s-12.9-28.9-28.8-28.9z"  /><path  d="M657.5 215.5H244.1c-41.8 0-75.9 34-75.9 75.9v560.9c0 41.8 34 75.9 75.9 75.9h413.4c41.8 0 75.9-34 75.9-75.9V291.4c-0.1-41.8-34.1-75.9-75.9-75.9z m18 636.8c0 9.8-8.3 18.1-18.1 18.1H244.1c-9.8 0-18.1-8.3-18.1-18.1V291.4c0-9.8 8.3-18.1 18.1-18.1h413.4c9.8 0 18.1 8.3 18.1 18.1v560.9z"  /><path  d="M787.7 98.2H359.9c-16 0-28.9 12.9-28.9 28.9s12.9 28.9 28.9 28.9h427.8c5.9 0 10.8 5 10.8 10.8v556.9c0 16 12.9 28.9 28.9 28.9 16 0 28.9-12.9 28.9-28.9V166.8c0.1-37.8-30.7-68.6-68.6-68.6z"  /></svg>