<?xml version="1.0" standalone="no"?><!DOCTYPE svg PUBLIC "-//W3C//DTD SVG 1.1//EN" "http://www.w3.org/Graphics/SVG/1.1/DTD/svg11.dtd"><svg class="icon" width="20px" height="20.00px" viewBox="0 0 1024 1024" version="1.1" xmlns="http://www.w3.org/2000/svg"><path d="M446.464 550.912c0.512 19.456 2.048 38.912 4.608 57.856l0.512 4.608h-1.536l-19.456-38.912-57.344-94.72H332.8v178.688h37.376v-71.68c-0.512-16.384-1.536-33.28-3.072-49.664-0.512-4.096-1.024-8.192-1.024-12.8h1.536l19.968 38.4 56.832 95.744h39.936V479.744h-37.376v71.168zM635.392 476.672c-4.096-0.512-7.68-0.512-11.776 0-46.08-2.56-85.504 32.256-88.576 78.336-0.512 4.608 0 9.216 0.512 13.312-4.608 46.592 29.696 88.576 76.288 93.184 4.096 0.512 7.68 0.512 11.776 0.512 47.104 2.048 86.528-34.816 88.576-81.92 0-4.096 0-7.68-0.512-11.776 4.608-46.592-29.696-87.552-76.288-91.648z m-11.264 154.112c-29.184 0-48.128-24.576-48.128-62.464 0-37.888 18.432-61.44 48.128-61.44 29.696 0 48.128 23.552 48.128 61.44-0.512 37.888-19.456 62.464-48.128 62.464z"  /><path d="M512 0C229.376 0 0 229.376 0 512s229.376 512 512 512 512-229.376 512-512S794.624 0 512 0z m60.416 303.104l-17.92 89.6H483.84L465.92 303.104h106.496z m198.656 386.56c0 16.896-13.824 31.232-30.72 31.232H283.648c-16.896 0-31.232-13.824-31.232-31.232V378.88c0-16.896 13.824-31.232 31.232-31.232h153.088l23.04 79.872h121.856L604.16 348.16h135.68c16.896 0 31.232 13.824 31.232 31.232v310.272z"  /></svg>