<?xml version="1.0" standalone="no"?><!DOCTYPE svg PUBLIC "-//W3C//DTD SVG 1.1//EN" "http://www.w3.org/Graphics/SVG/1.1/DTD/svg11.dtd"><svg class="icon"  viewBox="0 0 1024 1024" version="1.1" xmlns="http://www.w3.org/2000/svg"><path  d="M512 1024C229.717333 1024 0 794.282667 0 512S229.717333 0 512 0s512 229.717333 512 512-229.717333 512-512 512z m0-975.189333C256.682667 48.810667 48.810667 256.682667 48.810667 512S256.682667 975.189333 512 975.189333 975.189333 767.317333 975.189333 512 767.317333 48.810667 512 48.810667z"  /><path  d="M358.4 618.496c-25.941333 0-47.104 21.162667-47.104 47.104s21.162667 47.104 47.104 47.104 47.104-21.162667 47.104-47.104-21.162667-47.104-47.104-47.104z m0 68.266667c-11.605333 0-21.162667-9.557333-21.162667-21.162667s9.557333-21.162667 21.162667-21.162667 21.162667 9.557333 21.162667 21.162667-9.557333 21.162667-21.162667 21.162667z"  /><path  d="M426.666667 567.978667V307.2c0-37.546667-30.72-68.266667-68.266667-68.266667s-68.266667 30.72-68.266667 68.266667v260.778667c-31.744 22.186667-51.2 58.709333-51.2 97.621333 0 65.877333 53.589333 119.466667 119.466667 119.466667s119.466667-53.589333 119.466667-119.466667c0-38.912-19.456-75.434667-51.2-97.621333z m-68.266667 182.954666A85.333333 85.333333 0 0 1 273.066667 665.6c0-30.378667 16.384-58.709333 42.666666-74.069333 0.682667-0.341333 1.024-1.024 1.365334-1.365334a9.216 9.216 0 0 0 2.730666-2.389333c0.682667-0.682667 1.365333-1.706667 1.706667-2.730667 0.682667-1.024 1.024-1.706667 1.365333-3.072 0.341333-1.024 0.682667-2.389333 0.682667-3.413333 0-0.682667 0.341333-1.365333 0.341333-2.048V307.2c0-18.773333 15.36-34.133333 34.133334-34.133333s34.133333 15.36 34.133333 34.133333v269.653333c0 0.682667 0.341333 1.365333 0.341333 2.048 0 1.024 0.341333 2.389333 0.682667 3.413334s1.024 2.048 1.365333 3.072c0.682667 1.024 1.024 1.706667 1.706667 2.730666 0.682667 1.024 1.706667 1.706667 2.730667 2.389334 0.682667 0.341333 1.024 1.024 1.365333 1.365333 26.965333 15.018667 43.349333 43.349333 43.349333 73.728a85.333333 85.333333 0 0 1-85.333333 85.333333z"  /><path  d="M631.466667 524.629333a12.970667 12.970667 0 0 1-12.970667-12.970666v-157.696a12.970667 12.970667 0 1 1 25.941333 0V512c0 7.168-5.802667 12.629333-12.970666 12.629333z"  /><path  d="M632.832 414.037333c-20.138667 0-38.912-7.509333-49.493333-20.48a12.970667 12.970667 0 0 1 1.706666-18.090666 12.970667 12.970667 0 0 1 18.090667 1.706666c5.802667 6.826667 17.408 11.264 30.037333 11.264 13.312-1.024 23.552-4.096 29.354667-11.264 4.437333-5.461333 12.629333-6.144 18.090667-1.706666 5.461333 4.437333 6.144 12.629333 1.706666 18.090666-11.264 12.970667-29.013333 20.48-49.493333 20.48zM631.466667 524.629333c-2.048 0-4.437333-0.682667-6.485334-1.706666l-136.533333-78.848a12.8 12.8 0 0 1-4.778667-17.408 12.970667 12.970667 0 0 1 17.408-4.778667l136.533334 78.848c6.144 3.413333 8.192 11.264 4.778666 17.408a11.605333 11.605333 0 0 1-10.922666 6.485333z"  /><path  d="M502.784 494.592c-6.144 0-11.605333-4.437333-12.629333-10.581333-1.365333-6.826667 3.413333-13.653333 10.24-14.677334 8.874667-1.706667 18.432-9.216 24.576-20.138666 6.144-10.922667 8.192-22.528 4.778666-31.061334-2.389333-6.826667 1.024-13.994667 7.509334-16.384s13.994667 1.024 16.384 7.509334c5.802667 15.701333 3.413333 35.157333-6.826667 52.565333-10.24 17.749333-25.941333 29.696-42.325333 32.768h-1.706667zM494.933333 603.477333c-4.437333 0-8.533333-2.389333-11.264-6.485333-3.413333-6.144-1.365333-13.994667 4.778667-17.408l136.533333-78.848c5.802667-3.413333 13.994667-1.365333 17.408 4.778667 3.413333 6.144 1.365333 13.994667-4.778666 17.408l-136.533334 78.848a9.898667 9.898667 0 0 1-6.144 1.706666z"  /><path  d="M541.013333 621.226667c-1.365333 0-3.072-0.341333-4.437333-0.682667a12.9024 12.9024 0 0 1-7.509333-16.384c3.072-8.533333 1.024-20.48-5.12-31.402667-6.144-10.922667-15.36-18.090667-24.234667-19.797333-6.826667-1.365333-11.605333-7.850667-10.24-14.677333s8.192-11.605333 14.677333-10.24c16.725333 3.072 32.085333 14.677333 41.984 32.085333 10.24 17.408 12.970667 37.546667 7.168 52.906667a13.653333 13.653333 0 0 1-12.288 8.192zM631.466667 682.325333a12.970667 12.970667 0 0 1-12.970667-12.970666V512a12.970667 12.970667 0 1 1 25.941333 0v157.696c0 7.168-5.802667 12.629333-12.970666 12.629333z"  /><path  d="M669.696 651.264a13.994667 13.994667 0 0 1-9.898667-4.437333c-5.802667-6.826667-17.408-11.264-30.037333-11.264-12.288 0-23.552 4.096-29.354667 11.264-4.437333 5.461333-12.629333 6.144-18.090666 1.706666a12.936533 12.936533 0 0 1-1.706667-18.090666c10.922667-12.970667 28.672-20.48 48.810667-20.48s38.912 7.509333 49.493333 20.48c4.437333 5.461333 3.754667 13.312-1.706667 18.090666-1.706667 2.048-4.437333 2.730667-7.509333 2.730667zM768 603.477333c-2.048 0-4.437333-0.682667-6.485333-1.706666l-136.533334-78.848a12.8 12.8 0 0 1-4.778666-17.408c3.413333-6.144 11.605333-8.192 17.408-4.778667l136.533333 78.848c6.144 3.413333 8.192 11.264 4.778667 17.408a11.605333 11.605333 0 0 1-10.922667 6.485333z"  /><path  d="M720.896 623.274667c-5.12 0-10.24-3.072-11.946667-8.533334-5.802667-15.701333-3.072-35.157333 6.826667-52.565333 10.24-17.408 25.941333-29.696 42.325333-32.768 6.826667-1.024 13.653333 3.413333 14.677334 10.24s-3.413333 13.653333-10.24 14.677333c-8.874667 1.706667-18.432 9.216-24.576 20.138667-6.144 10.922667-8.192 22.528-5.12 31.061333 2.389333 6.485333-1.024 13.994667-7.850667 16.384-1.365333 1.024-2.730667 1.365333-4.096 1.365334zM631.466667 524.629333c-4.437333 0-8.533333-2.389333-11.264-6.485333-3.413333-6.144-1.365333-13.994667 4.778666-17.408l136.533334-78.848a12.8 12.8 0 0 1 12.629333 22.186667l-136.533333 78.848a9.898667 9.898667 0 0 1-6.144 1.706666z"  /><path  d="M761.514667 496.64c-0.682667 0-1.365333 0-2.389334-0.341333-16.725333-3.072-32.085333-14.677333-41.984-32.085334-10.24-17.408-12.970667-37.546667-7.168-52.906666 2.389333-6.826667 9.557333-10.24 16.384-7.850667 6.826667 2.389333 10.24 9.898667 7.850667 16.384-3.072 8.533333-1.024 20.48 5.461333 31.402667 6.144 10.922667 15.36 18.090667 24.234667 19.797333 6.826667 1.365333 11.605333 7.850667 10.24 14.677333-1.365333 6.485333-6.485333 10.922667-12.629333 10.922667z"  /></svg>