<?xml version="1.0" standalone="no"?><!DOCTYPE svg PUBLIC "-//W3C//DTD SVG 1.1//EN" "http://www.w3.org/Graphics/SVG/1.1/DTD/svg11.dtd"><svg class="icon"  viewBox="0 0 1024 1024" version="1.1" xmlns="http://www.w3.org/2000/svg"><path  d="M878.857788 539.524497c-6.065346-2.526141-12.930709-1.200025-17.600374 3.534858l-28.852786 28.800611L832.404628 365.04688c0-57.87949-34.448557-110.884963-86.671405-135.198522L745.733223 87.39316c2.00439-2.639186 3.760949-5.539248 3.760949-9.121933L749.494172 16.1873c0-8.948016-7.191457-16.1873-16.169908-16.1873l-3.760949 0-93.232414 0-3.869647 0c-8.921929 0-16.135125 7.239284-16.135125 16.1873l0 62.083927c0 3.617468 1.813082 6.62188 3.834864 9.287154l0 142.259542c-52.292414 24.235297-86.662709 77.223379-86.662709 135.20287l0 187.386587-9.452375-9.408895c-2.934845-2.930497-7.395809-4.269656-11.813294-4.391398L512.232614 416.182748c0-22.835267-10.204564-42.970477-25.830983-57.266433 15.148148-8.717576 25.830983-24.452693 25.830983-43.113959 0-27.722328-22.617871-50.357591-50.340199-50.357591L235.222385 265.444766c-27.817982 0-50.453245 22.609176-50.453245 50.357591 0 18.661266 10.682835 34.357251 25.839679 43.079175-15.639462 14.330739-25.839679 34.465949-25.839679 57.301216l0 148.820551-22.048294-22.039598c-4.67836-4.687056-11.561115-6.030563-17.613417-3.504422-6.030563 2.404399-9.965429 8.274089-9.965429 14.91336l0 453.357451c0 8.956712 7.239284 16.222084 16.152517 16.222084l720.732692 0c8.904537 0 16.100342-7.195805 16.169908-16.152517l0.660884-453.427017C888.858001 547.889892 884.866611 541.96368 878.857788 539.524497zM855.926867 991.72975 167.460077 991.72975l0-398.364979 17.348194 17.352542 16.152517 16.20904 16.135125 16.135125 12.300261 12.335044c6.065346 5.995779 16.778617 5.995779 22.826572 0l79.019069-79.071244 79.019069 79.071244c6.065346 5.995779 16.796009 5.995779 22.830919 0l46.800994-46.87056 16.143821-16.204692 15.839467-15.787292 0.295658 0.330442 21.335236 21.261321 32.261554 32.231119 20.839573 20.80479 4.126175 4.130522c6.065346 6.200132 16.796009 6.008823 22.80918 0l4.200089-4.130522 74.853763-74.992896 74.940721 74.992896 4.126175 4.130522c6.065346 6.008823 16.796009 6.008823 22.80918 0l4.126175-4.130522 1.395682 0 0-1.343507 32.305034-32.391992 24.06138-24.06138L855.926867 991.72975zM217.06113 315.802357c0-9.965429 8.130607-18.017774 18.13082-18.017774l226.665682 0c9.982821 0 18.061253 8.047997 18.061253 18.017774 0 9.965429-8.074084 18.065601-18.061253 18.065601L235.187602 333.867957C225.222173 333.894045 217.06113 325.767785 217.06113 315.802357zM263.040367 370.216555l170.964499 0c25.33532 0 45.948802 20.613481 45.948802 46.000977l0 47.244481L217.095913 463.462013 217.095913 416.217532C217.06113 390.830036 237.63548 370.216555 263.040367 370.216555zM217.06113 495.67574l262.857754 0 0 67.144904-58.231671 58.244715-78.058179-78.110354c-6.069694-6.030563-18.669962-6.030563-24.748351 0l-78.084266 78.110354-23.730939-23.713547L217.065478 495.67574zM652.470373 32.252859l60.996947 0 0 29.835416-60.996947 0L652.470373 32.252859zM565.798968 364.977314c0-48.357548 30.596302-92.310655 76.145095-109.341452 6.395788-2.369616 10.52631-8.369743 10.52631-15.130756L652.470373 94.419396l60.996947 0 0 146.081362c0 6.761013 4.200089 12.765488 10.469787 15.100321 45.600968 17.126451 76.19727 61.044774 76.19727 109.376235l0 18.165603-234.33541 0L565.798968 364.977314zM565.798968 415.465342l234.33541 0 0 188.704006-16.93949 16.900359-78.058179-78.110354c-6.134913-6.030563-18.874314-6.030563-24.865745 0l-78.006004 78.110354-36.361642-36.379033 0-169.220984L565.798968 415.46969zM765.133635 712.232512l-0.073915 0c-8.921929 0-16.135125 7.195805-16.135125 16.065558l-0.121742 67.936225-0.069567 32.213727-0.2087 77.536429L275.053665 905.984451l0-77.536429 0-16.1873 0-16.135125 0-67.866658c0-8.865406-7.230588-16.130777-16.143821-16.130777-8.904537 0-16.152517 7.265372-16.152517 16.130777l0 62.605677 0 17.265584 0 16.1873 0 97.871643c0 8.869754 7.24798 16.174256 16.152517 16.174256l505.749867 0c8.904537 0 16.095994-7.195805 16.169908-16.174256l0.2087-93.741121 0.052175-32.213727 0.247831-67.818831C781.264412 719.493535 773.99904 712.232512 765.133635 712.232512z" /></svg>