<?xml version="1.0" standalone="no"?><!DOCTYPE svg PUBLIC "-//W3C//DTD SVG 1.1//EN" "http://www.w3.org/Graphics/SVG/1.1/DTD/svg11.dtd"><svg class="icon"  viewBox="0 0 1024 1024" version="1.1" xmlns="http://www.w3.org/2000/svg"><path  d="M450 820.5H212c-11 0-20-9-20-20v-577c0-11 9-20 20-20h480c11 0 20 9 20 20V381h50V223.5c0-38.7-31.3-70-70-70H212c-38.7 0-70 31.3-70 70v577c0 38.7 31.3 70 70 70h238v-50z"  /><path  d="M737 381m-25 0a25 25 0 1 0 50 0 25 25 0 1 0-50 0Z"  /><path  d="M450 845.5m-25 0a25 25 0 1 0 50 0 25 25 0 1 0-50 0Z"  /><path  d="M524.1 368.5h-236c-13.8 0-25-11.2-25-25s11.2-25 25-25h236c13.8 0 25 11.2 25 25s-11.2 25-25 25zM374.1 567.5h-86c-13.8 0-25-11.2-25-25s11.2-25 25-25h86c13.8 0 25 11.2 25 25s-11.2 25-25 25zM677.5 511c41.3 0 80.1 16.1 109.2 45.3 29.2 29.2 45.3 68 45.3 109.2s-16.1 80.1-45.3 109.2c-29.2 29.2-68 45.3-109.2 45.3s-80.1-16.1-109.2-45.3c-29.2-29.2-45.3-68-45.3-109.2s16.1-80.1 45.3-109.2c29.1-29.2 67.9-45.3 109.2-45.3m0-50C564.6 461 473 552.6 473 665.5S564.6 870 677.5 870 882 778.4 882 665.5 790.4 461 677.5 461z"  /><path  d="M664.5 704c-13.8 0-25-11.2-25-25v-78c0-13.8 11.2-25 25-25s25 11.2 25 25v78c0 13.8-11.2 25-25 25z"  /><path  d="M754 704h-89c-13.8 0-25-11.2-25-25s11.2-25 25-25h89c13.8 0 25 11.2 25 25s-11.2 25-25 25z"  /></svg>