<?xml version="1.0" standalone="no"?><!DOCTYPE svg PUBLIC "-//W3C//DTD SVG 1.1//EN" "http://www.w3.org/Graphics/SVG/1.1/DTD/svg11.dtd"><svg class="icon" viewBox="0 0 1075 1024" version="1.1" xmlns="http://www.w3.org/2000/svg"><path  d="M1065.384464 613.464925a25.596052 25.596052 0 0 1-19.401807 20.297669 202.413578 202.413578 0 0 0-131.358938 97.392977 204.973183 204.973183 0 0 0-18.249985 162.995658 25.852012 25.852012 0 0 1-7.678815 27.003835 534.189601 534.189601 0 0 1-174.565074 101.488345 25.596052 25.596052 0 0 1-27.15741-6.757357 202.823115 202.823115 0 0 0-298.705925 0 25.596052 25.596052 0 0 1-27.131815 6.757357 534.215197 534.215197 0 0 1-174.667458-101.488345 25.9288 25.9288 0 0 1-7.678815-27.029431 204.768414 204.768414 0 0 0-18.224389-162.970062 202.490366 202.490366 0 0 0-131.307746-97.392977 25.596052 25.596052 0 0 1-19.401807-20.297669 532.244301 532.244301 0 0 1 0-202.797518 25.596052 25.596052 0 0 1 19.401807-20.29767 202.413578 202.413578 0 0 0 131.307746-97.392977 204.768414 204.768414 0 0 0 18.224389-162.944465 25.852012 25.852012 0 0 1 7.678815-27.003835A533.370528 533.370528 0 0 1 360.904331 1.514518a25.596052 25.596052 0 0 1 27.131814 6.757358 202.797518 202.797518 0 0 0 298.705925 0 25.442475 25.442475 0 0 1 27.131815-6.757358 533.063375 533.063375 0 0 1 174.693054 101.488346 25.852012 25.852012 0 0 1 7.678815 27.003834 204.768414 204.768414 0 0 0 18.224389 162.970062 202.362386 202.362386 0 0 0 131.358938 97.392977 25.596052 25.596052 0 0 1 19.401807 20.323266 532.039533 532.039533 0 0 1 0.153576 202.771922z m-47.531868-177.329447A256.702804 256.702804 0 0 1 870.265762 318.751985a259.390389 259.390389 0 0 1-27.285392-187.055947 481.717695 481.717695 0 0 0-130.821421-75.994678A251.634785 251.634785 0 0 1 537.517088 125.399409a255.474193 255.474193 0 0 1-174.641862-69.723645 481.94806 481.94806 0 0 0-130.82142 76.020274A259.313601 259.313601 0 0 1 204.768414 318.751985a256.626015 256.626015 0 0 1-147.48445 117.383493 474.934741 474.934741 0 0 0 0 151.886972 256.574823 256.574823 0 0 1 174.84663 304.465036 482.818325 482.818325 0 0 0 130.795825 76.020274A255.550981 255.550981 0 0 1 537.517088 898.758518a251.660381 251.660381 0 0 1 174.641861 69.69805 482.664749 482.664749 0 0 0 130.795825-75.994678A259.64635 259.64635 0 0 1 870.265762 705.405943a256.600419 256.600419 0 0 1 147.561238-117.383493 475.830603 475.830603 0 0 0 0-151.886972zM683.414583 564.986003a25.749628 25.749628 0 0 1-20.476841-29.947381 127.545126 127.545126 0 1 0-125.420654 105.634906 126.802841 126.802841 0 0 0 22.831678-2.354837 25.749628 25.749628 0 0 1 9.137791 50.654587 174.872226 174.872226 0 0 1-31.969469 3.199506 181.962332 181.962332 0 1 1 175.768088-147.919583 25.596052 25.596052 0 0 1-29.870593 20.732802z" /></svg>