<?xml version="1.0" standalone="no"?><!DOCTYPE svg PUBLIC "-//W3C//DTD SVG 1.1//EN" "http://www.w3.org/Graphics/SVG/1.1/DTD/svg11.dtd"><svg class="icon" viewBox="0 0 1024 1024" version="1.1" xmlns="http://www.w3.org/2000/svg"><path  d="M406.3 927.3H236.4c-65.4 0-118.7-53.2-118.7-118.7V216c0-65.4 53.2-118.7 118.7-118.7h73.2c15.9 0 28.8 12.9 28.8 28.8s-12.9 28.8-28.8 28.8h-73.2c-33.7 0-61.1 27.4-61.1 61.1v592.6c0 33.7 27.4 61.1 61.1 61.1h169.9c15.9 0 28.8 12.9 28.8 28.8-0.1 15.9-13 28.8-28.8 28.8zM842.5 427c-15.9 0-28.8-12.9-28.8-28.8V216c0-33.7-27.4-61.1-61.1-61.1h-62.1c-15.9 0-28.8-12.9-28.8-28.8s12.9-28.8 28.8-28.8h62.1c65.4 0 118.7 53.2 118.7 118.7v182.2c-0.1 15.9-13 28.8-28.8 28.8zM595.7 154.8H406.3c-15.9 0-28.8-12.9-28.8-28.8s12.9-28.8 28.8-28.8h189.4c15.9 0 28.8 12.9 28.8 28.8s-12.9 28.8-28.8 28.8z"  /><path  d="M719.2 355H263.6c-15.9 0-28.8-12.9-28.8-28.8s12.9-28.8 28.8-28.8h455.6c15.9 0 28.8 12.9 28.8 28.8S735.1 355 719.2 355zM455.4 546.9H263.6c-15.9 0-28.8-12.9-28.8-28.8s12.9-28.8 28.8-28.8h191.8c15.9 0 28.8 12.9 28.8 28.8s-12.9 28.8-28.8 28.8zM455.4 738.7H263.6c-15.9 0-28.8-12.9-28.8-28.8s12.9-28.8 28.8-28.8h191.8c15.9 0 28.8 12.9 28.8 28.8s-12.9 28.8-28.8 28.8zM719.9 648.3c-93.3 0-187.5-26.4-187.5-85.3 0-59 94.2-85.3 187.5-85.3S907.4 504 907.4 563c0 58.9-94.2 85.3-187.5 85.3zM592 563c11.5 10.1 55.2 27.8 127.9 27.8s116.4-17.8 128-27.8c-11.5-10.1-55.2-27.8-127.9-27.8S603.5 552.9 592 563z m258.5 2.9zM719.9 790.3c-93.3 0-187.5-26.4-187.5-85.3 0-15.9 12.9-28.8 28.8-28.8 15.2 0 27.6 11.7 28.7 26.6 7.1 9.4 51.7 29.9 130 29.9s122.9-20.5 130-29.9c1.1-14.9 13.5-26.6 28.7-26.6 15.9 0 28.8 12.9 28.8 28.8 0 58.9-94.2 85.3-187.5 85.3zM719.9 924.6c-93.3 0-187.5-26.4-187.5-85.3 0-15.9 12.9-28.8 28.8-28.8 15.2 0 27.6 11.7 28.7 26.6 7.1 9.4 51.7 29.9 130 29.9s122.9-20.5 130-29.9c1.1-14.9 13.5-26.6 28.7-26.6 15.9 0 28.8 12.9 28.8 28.8 0 58.9-94.2 85.3-187.5 85.3z"  /></svg>