<?xml version="1.0" standalone="no"?><!DOCTYPE svg PUBLIC "-//W3C//DTD SVG 1.1//EN" "http://www.w3.org/Graphics/SVG/1.1/DTD/svg11.dtd"><svg class="icon" width="20px" height="20.00px" viewBox="0 0 1024 1024" version="1.1" xmlns="http://www.w3.org/2000/svg"><path d="M819.2 755.456H641.570133c-14.4384 0-26.112 12.475733-26.112 27.869867v168.618666h28.433067L819.2 760.439467v-4.983467zM819.2 699.733333v-88.183466c0-15.189333 11.4688-27.477333 25.6-27.477334s25.6 12.288 25.6 27.477334v160.136533c0 7.2192-2.645333 14.1312-7.338667 19.285333L672.887467 998.7072a24.746667 24.746667 0 0 1-18.261334 8.226133H271.36C206.336 1006.933333 153.6 950.306133 153.6 880.452267V143.530667C153.6 73.693867 206.336 17.066667 271.36 17.066667h481.28C817.664 17.066667 870.4 73.693867 870.4 143.547733v48.930134c0 15.189333-11.4688 27.477333-25.6 27.477333s-25.6-12.288-25.6-27.477333V143.530667c0-39.4752-29.7984-71.492267-66.56-71.492267H271.36c-36.7616 0-66.56 32.017067-66.56 71.509333v736.887467c0 39.4752 29.7984 71.492267 66.56 71.492267H563.2v-168.618667C563.2 737.160533 598.289067 699.733333 641.570133 699.733333H819.2zM449.826133 278.3232h43.9296l-20.650666 181.3504c-3.498667 30.788267-12.458667 53.316267-26.9312 68.334933-16.059733 15.7696-39.492267 23.6544-70.656 23.6544-27.0336 0-46.813867-7.509333-58.999467-22.528-12.561067-15.018667-17.339733-35.669333-14.353067-61.952l0.989867-8.635733h43.9296l-0.938667 8.260267c-3.515733 30.788267 7.867733 46.1824 34.525867 46.1824 14.6432 0 26.043733-4.5056 33.792-13.141334 7.748267-8.635733 12.6976-22.528 14.882133-41.6768l20.48-179.848533zM712.004267 273.066667c31.5392 0 55.6032 6.382933 71.748266 19.524266 17.186133 13.892267 25.6 35.669333 24.900267 64.955734H765.098667c-1.877333-16.520533-7.645867-28.535467-16.5888-35.669334-8.9088-7.509333-23.552-10.888533-43.076267-10.888533-16.896 0-29.917867 2.2528-39.4752 7.133867-11.912533 5.632-18.244267 15.018667-19.694933 27.784533-1.28 11.264 3.669333 20.650667 15.650133 27.409067 5.290667 3.003733 20.053333 8.635733 43.9296 16.520533 35.157333 11.264 57.3952 20.2752 67.2256 26.282667 21.691733 13.892267 31.146667 33.041067 28.330667 57.821866-2.730667 24.029867-14.301867 43.178667-34.645334 57.070934-20.309333 13.5168-47.786667 20.650667-81.954133 20.650666-33.041067 0-58.231467-6.382933-75.178667-19.1488-20.718933-15.7696-30.293333-40.5504-28.279466-74.717866h43.554133c0.682667 20.2752 6.144 34.9184 16.810667 43.554133 9.659733 7.509333 25.344 11.639467 47.496533 11.639467 19.524267 0 35.669333-3.3792 47.6672-9.762134 12.032-6.7584 19.012267-15.394133 20.309333-26.658133 1.621333-14.267733-5.7344-25.531733-21.316266-33.792-4.949333-2.628267-21.538133-8.635733-50.176-17.646933-31.8464-10.513067-51.643733-18.0224-59.016534-22.528-19.234133-12.3904-27.323733-30.4128-24.6272-54.0672 2.696533-23.6544 14.592-42.427733 36.4032-55.944534 20.2752-13.141333 44.6464-19.524267 73.557334-19.524266z" /></svg>