<?xml version="1.0" standalone="no"?><!DOCTYPE svg PUBLIC "-//W3C//DTD SVG 1.1//EN" "http://www.w3.org/Graphics/SVG/1.1/DTD/svg11.dtd"><svg class="icon" width="20px" height="20.00px" viewBox="0 0 1024 1024" version="1.1" xmlns="http://www.w3.org/2000/svg"><path d="M144.5 123.7H881c44 0 79.6 35.6 79.6 79.6v537.4c0 44-35.6 79.6-79.6 79.6H662.7c-13.2 0-26 4.3-36.4 12.4l-73.8 56.7c-22.9 17.6-55.2 16.3-76.5-3.1l-55.5-50.4c-11-10-25.3-15.5-40.2-15.5H144.5c-44 0-79.6-35.6-79.6-79.6V203.3c-0.1-43.9 35.6-79.6 79.6-79.6z m109.4 398.1c38.5 0 69.7-31.2 69.7-69.7s-31.2-69.7-69.7-69.7-69.7 31.2-69.7 69.7 31.3 69.7 69.7 69.7z m258.8 0c38.5 0 69.7-31.2 69.7-69.7s-31.2-69.7-69.7-69.7-69.7 31.3-69.7 69.8 31.2 69.6 69.7 69.6z m258.8 0c38.5 0 69.7-31.2 69.7-69.7s-31.2-69.7-69.7-69.7-69.7 31.2-69.7 69.7 31.2 69.7 69.7 69.7z" /></svg>