<?xml version="1.0" standalone="no"?><!DOCTYPE svg PUBLIC "-//W3C//DTD SVG 1.1//EN" "http://www.w3.org/Graphics/SVG/1.1/DTD/svg11.dtd"><svg class="icon" width="20px" height="20.00px" viewBox="0 0 1024 1024" version="1.1" xmlns="http://www.w3.org/2000/svg"><path d="M146.432 280.064v418.304c0 66.048 53.76 119.808 119.808 119.808h245.76l248.32 186.368c18.432 13.824 44.544 0.512 44.544-22.016v-163.84h99.328c66.048 0 119.808-53.76 119.808-119.808V280.064c0-66.048-53.76-119.808-119.808-119.808H266.24c-66.048 0-119.808 53.76-119.808 119.808z m601.6 212.48c0-30.208 24.576-54.784 54.784-54.784s54.784 24.576 54.784 54.784-24.576 54.784-54.784 54.784c-30.208 0-55.296-24.576-54.784-54.784z m-219.648 0c0-30.208 24.576-54.784 54.784-54.784 30.208 0 54.784 24.576 54.784 54.784s-24.576 54.784-54.784 54.784c-30.208 0-54.784-24.576-54.784-54.784z m-219.648 0c0-30.208 24.576-54.784 54.784-54.784 30.208 0 54.784 24.576 54.784 54.784s-24.576 54.784-54.784 54.784c-30.208 0-54.784-24.576-54.784-54.784z"  /><path d="M233.472 123.392h643.584c-5.12-61.44-56.832-109.568-119.296-109.568H160.768C72.192 13.824 0 86.016 0 174.592v377.856c0 62.976 48.128 114.176 109.568 119.296V247.296c0-68.096 55.808-123.904 123.904-123.904z"  /></svg>