<?xml version="1.0" standalone="no"?><!DOCTYPE svg PUBLIC "-//W3C//DTD SVG 1.1//EN" "http://www.w3.org/Graphics/SVG/1.1/DTD/svg11.dtd"><svg class="icon" width="20px" height="19.86px" viewBox="0 0 1031 1024" version="1.1" xmlns="http://www.w3.org/2000/svg"><path d="M638.823888 407.697108v-76.982986a129.929977 129.929977 0 0 0-259.319955 0.325v76.603986h259.319955zM534.879906 605.841074a50.564991 50.564991 0 0 0 25.985995-44.175993 51.700991 51.700991 0 0 0-103.402981 0 50.564991 50.564991 0 0 0 25.985995 44.175993v84.075985h51.429991V605.840074z m-18.406997 417.671926a511.76291 511.76291 0 1 1 515.38991-511.76291 513.98291 513.98291 0 0 1-515.38991 511.76291z m173.78197-615.760892v-77.037986a181.089968 181.089968 0 0 0-362.180937 0v76.982986h-77.957986v359.149937h518.096909v-359.149937h-77.957986z m0 0" /></svg>