<?xml version="1.0" standalone="no"?><!DOCTYPE svg PUBLIC "-//W3C//DTD SVG 1.1//EN" "http://www.w3.org/Graphics/SVG/1.1/DTD/svg11.dtd"><svg class="icon" width="20px" height="20.00px" viewBox="0 0 1024 1024" version="1.1" xmlns="http://www.w3.org/2000/svg"><path d="M932.416 496.917333l-85.333333-85.333333A21.333333 21.333333 0 0 0 810.666667 426.666667v59.733333H537.6V213.333333H597.333333a21.333333 21.333333 0 0 0 15.082667-36.416l-85.333333-85.333333a21.333333 21.333333 0 0 0-30.165334 0l-85.333333 85.333333A21.333333 21.333333 0 0 0 426.666667 213.333333h59.733333v273.066667H213.333333V426.666667a21.333333 21.333333 0 0 0-36.416-15.082667l-85.333333 85.333333a21.333333 21.333333 0 0 0 0 30.165334l85.333333 85.333333A21.333333 21.333333 0 0 0 213.333333 597.333333v-59.733333h273.066667V810.666667H426.666667a21.333333 21.333333 0 0 0-15.082667 36.416l85.333333 85.333333a21.333333 21.333333 0 0 0 30.165334 0l85.333333-85.333333A21.333333 21.333333 0 0 0 597.333333 810.666667h-59.733333V537.6H810.666667V597.333333a21.333333 21.333333 0 0 0 36.416 15.082667l85.333333-85.333333a21.333333 21.333333 0 0 0 0-30.165334z"  /></svg>