<?xml version="1.0" standalone="no"?><!DOCTYPE svg PUBLIC "-//W3C//DTD SVG 1.1//EN" "http://www.w3.org/Graphics/SVG/1.1/DTD/svg11.dtd"><svg class="icon" width="20px" height="20.00px" viewBox="0 0 1024 1024" version="1.1" xmlns="http://www.w3.org/2000/svg"><path d="M950.0672 776.2432C998.4512 696.2688 1024 605.2352 1024 512 1024 229.6832 794.3168 0 512 0S0 229.6832 0 512s229.6832 512 512 512c94.9248 0 187.2384-26.2656 268.032-76.032l201.4208 66.9184a28.44672 28.44672 0 0 0 35.9424-35.9424l-67.328-202.7008z m-199.6288-186.0608l-215.5008 203.9808c-6.2976 6.0416-14.6432 9.0112-22.9888 9.0112-8.3456 0-16.64-3.0208-22.9888-9.0112l-215.5008-203.9808c-72.0384-68.1984-72.0384-179.3024 0-247.552 34.9184-33.024 81.3568-51.2512 130.7648-51.2512 39.168 0 76.544 11.4688 107.7248 32.7168 31.1808-21.2992 68.5568-32.7168 107.7248-32.7168 49.408 0 95.7952 18.2272 130.7648 51.2512 72.0384 68.3008 72.0384 179.3536 0 247.552z" /></svg>