<?xml version="1.0" standalone="no"?><!DOCTYPE svg PUBLIC "-//W3C//DTD SVG 1.1//EN" "http://www.w3.org/Graphics/SVG/1.1/DTD/svg11.dtd"><svg class="icon"  viewBox="0 0 1024 1024" version="1.1" xmlns="http://www.w3.org/2000/svg"><path  d="M459.6 229.7h106c16 0 29-13 29-29s-13-29-29-29h-106c-16 0-29 13-29 29s13 29 29 29zM235.5 406.5h47.2v58.1h-47.2zM485.8 406.5h58.1v58.1h-58.1zM616.4 406.5h47.2v58.1h-47.2zM736.2 406.5h58.1v58.1h-58.1z"  /><path  d="M868.9 171.6H753.3c-16 0-29 13-29 29s13 29 29 29h115.6V830H155V229.7h114.8c16 0 29-13 29-29s-13-29-29-29H155c-32 0-58.1 26-58.1 58.1v600.4c0 32 26 58.1 58.1 58.1h713.9c32 0 58.1-26 58.1-58.1V229.7c-0.1-32-26.1-58.1-58.1-58.1z"  /><path  d="M355.2 406.5h58.1v58.1h-58.1zM239.1 563.7c0 16 13 29 29 29h116.1c16 0 29-13 29-29s-13-29-29-29H268.1c-16 0-29 13-29 29zM239.1 692.2c0 16 13 29 29 29h497.1c16 0 29-13 29-29s-13-29-29-29H268.1c-16 0-29 13-29 29zM363.6 296.8c16 0 29-13 29-29V164.4c0-16-13-29-29-29s-29 13-29 29v103.4c-0.1 16 12.9 29 29 29zM660.3 296.8c16 0 29-13 29-29V164.4c0-16-13-29-29-29s-29 13-29 29v103.4c0 16 12.9 29 29 29z"  /></svg>