<?xml version="1.0" standalone="no"?><!DOCTYPE svg PUBLIC "-//W3C//DTD SVG 1.1//EN" "http://www.w3.org/Graphics/SVG/1.1/DTD/svg11.dtd"><svg class="icon" viewBox="0 0 1024 1024" version="1.1" xmlns="http://www.w3.org/2000/svg"><path  d="M810.1 550.7c-13.3-59.3-67.5-103.5-130.2-102.1-10.4 0.3-20.8 1.7-30.9 4.2-36.3-80.2-115.5-132.2-205.6-132.3-58.2-1-115.4 21.5-157.2 62-40.3 39-64.4 93-66.8 149.2-32 7.8-61.4 25.5-83.1 50.5-27.3 31.4-41.4 72.9-39 114.4-2.4 41.5 11.7 83.1 39 114.4 27.7 31.9 67.8 51.8 110 54.6l527.8 0.1 2.1-0.3c80.5-12.1 142.1-79.9 146.5-161.1v-0.9c1.6-71.7-45.5-133.8-112.6-152.7z m-40.5 257H249.3c-26.6-2-51.7-14.6-69.2-34.7-17.7-20.3-26.7-47.4-24.8-74.3l0.2-2.1-0.1-2.1c-1.9-26.9 7.1-53.9 24.8-74.3 17.7-20.3 43.2-33 70.1-34.8l27-1.8v-44.9c0.5-42.9 18.5-84.6 49.3-114.5 30.8-29.9 73.1-46.5 116-45.7h0.7c74.7 0 139.4 48.1 161 119.6l9.9 32.9 30.8-15.4c11.2-5.6 23.8-8.8 36.3-9.1 39.3-0.7 72.4 30.4 74 69.5l1 24.4 24.2 3.2c49.1 6.4 85.3 48.5 84.5 98-3.3 53-43.1 97.3-95.4 106.1zM690.5 330c8.2-2.8 81.1-25 119.5 57.1 4.6 9.9 14.4 15.7 24.6 15.7 3.9 0 7.8-0.8 11.5-2.6 13.6-6.4 19.5-22.5 13.1-36.1C811 261 715.9 263.2 672.3 278.8c-14.1 5.1-21.6 20.6-16.5 34.8 5.1 14.1 20.5 21.5 34.7 16.4z"  /><path  d="M695.8 221.3c0.3-0.1 30.8-12.2 68-7.6 47.9 5.9 85.4 36.4 111.6 90.7 4.7 9.7 14.4 15.4 24.5 15.4 4 0 8-0.9 11.8-2.7 13.5-6.5 19.2-22.8 12.7-36.3-43.9-91-109.4-116.2-156.7-121.3-50.6-5.5-90.9 10.9-92.6 11.6-13.8 5.7-20.3 21.5-14.7 35.3 5.6 13.9 21.5 20.5 35.4 14.9zM382.6 655.9c-15.1-4.3-22.6-9-22.6-14.3 0-7.1 5.5-11 16.4-11.4 6.2 0.5 11.4 1.7 15.6 3.6 4.7 1 8.3 1.4 10.9 1.4 7.8 0 12.2-4.5 13.3-13.6-1.1-10.5-14-16.4-39-17.9-31.2 2.4-47.6 16.2-49.1 41.5 0 16.7 13.8 28.6 41.3 35.7 16.6 4.3 25 9.3 25 15-0.5 10.5-7.3 15.7-20.3 15.7-5.2 0-12-1.2-20.3-3.6-4.7-1.9-9.1-3.1-13.3-3.6-8.3 1-12.7 5.2-13.3 12.9 0.5 12.4 16.6 18.8 48.4 19.3 32.2-1.4 49.4-15 51.5-40.7 0-19-14.8-32.3-44.5-40zM523 637.3c-8.3 1-13 4.8-14 11.4-6.2-7.6-15.3-11.7-27.3-12.2-29.6 2.9-45.5 19.8-47.6 50.7 1.6 31.4 17.4 47.9 47.6 49.3 10.9 0 20-3.6 27.3-10.7 1.6 6.7 6.2 10 14 10 9.4 0 13.8-5.5 13.3-16.4v-65c0.5-11.3-3.9-17.1-13.3-17.1z m-37.4 76.5c-14-0.5-21.6-9.3-22.6-26.4 1-16.7 8.6-25.5 22.6-26.4 13.5 1 21.1 9.8 22.6 26.4-1.6 16.7-9.1 25.5-22.6 26.4zM636.9 637.3c-8.3 1-13 4.8-14 11.4-6.2-7.6-15.3-11.7-27.3-12.2-29.6 2.9-45.5 19.8-47.6 50.7 1.6 31.4 17.4 47.9 47.6 49.3 10.9 0 20-3.6 27.3-10.7 1.6 6.7 6.2 10 14 10 9.4 0 13.8-5.5 13.3-16.4v-65c0.5-11.3-3.9-17.1-13.3-17.1z m-37.4 76.5c-14-0.5-21.6-9.3-22.6-26.4 1-16.7 8.6-25.5 22.6-26.4 13.5 1 21.1 9.8 22.6 26.4-1.6 16.7-9.1 25.5-22.6 26.4zM717.3 655.9c-15.1-4.3-22.6-9-22.6-14.3 0-7.1 5.5-11 16.4-11.4 6.2 0.5 11.4 1.7 15.6 3.6 4.7 1 8.3 1.4 10.9 1.4 7.8 0 12.2-4.5 13.3-13.6-1.1-10.5-14-16.4-39-17.9-31.2 2.4-47.6 16.2-49.1 41.5 0 16.7 13.8 28.6 41.3 35.7 16.6 4.3 25 9.3 25 15-0.5 10.5-7.3 15.7-20.3 15.7-5.2 0-12-1.2-20.3-3.6-4.7-1.9-9.1-3.1-13.3-3.6-8.3 1-12.7 5.2-13.3 12.9 0.5 12.4 16.6 18.8 48.4 19.3 32.2-1.4 49.4-15 51.5-40.7-0.1-19-14.9-32.3-44.5-40z"  /></svg>