<?xml version="1.0" standalone="no"?><!DOCTYPE svg PUBLIC "-//W3C//DTD SVG 1.1//EN" "http://www.w3.org/Graphics/SVG/1.1/DTD/svg11.dtd"><svg class="icon" width="20px" height="20.00px" viewBox="0 0 1024 1024" version="1.1" xmlns="http://www.w3.org/2000/svg"><path d="M933.933033 511.744128c0-44.009995 27.122439-82.902549 68.573714-99.278361L1023.488256 404.277861l-5.629186-22.004997c-12.281859-48.103948-31.216392-94.16092-56.803598-137.147427l-11.770115-19.446277-20.981509 9.211395c-13.817091 6.14093-28.657671 9.211394-43.498251 9.211394-28.145927 0-55.268366-11.258371-74.714642-31.216392-31.216392-31.216392-39.916042-78.296852-21.493254-118.212893l9.211394-20.98151-19.446276-11.770115c-42.986507-25.587206-89.043478-44.521739-137.147427-56.803598L619.210395 0l-8.187906 20.981509c-15.352324 41.451274-55.268366 68.573713-99.278361 68.573713-44.009995 0-83.414293-27.122439-99.278361-68.573713L404.277861 0l-22.004997 5.629185c-48.103948 12.281859-94.16092 31.216392-137.147427 56.803599l-19.446277 11.770115 9.211395 20.981509c18.422789 39.916042 9.723138 87.508246-21.493254 118.212893-31.216392 31.216392-78.296852 39.404298-118.212893 21.493254l-20.981509-9.211395-11.770115 19.446277c-25.587206 42.474763-44.521739 89.043478-56.803599 137.147427L0 404.277861l20.981509 8.187906c41.451274 15.352324 68.573713 55.268366 68.573713 99.278361 0 44.009995-26.610695 82.902549-68.573713 99.278361L0 619.210395l5.629185 22.004997c12.281859 48.103948 31.216392 94.16092 56.803599 137.147427l11.770115 19.446276 20.981509-9.211394c13.817091-6.14093 28.657671-9.211394 43.498251-9.211394 28.145927 0 54.756622 11.258371 74.714642 31.216392 31.216392 31.216392 39.916042 77.785107 21.493254 118.212893l-9.211395 20.981509 19.446277 11.770115c42.986507 25.075462 89.043478 44.521739 137.147427 56.803599l22.004997 5.117441 8.187906-20.981509c15.352324-41.451274 55.268366-68.573713 99.278361-68.573714 44.009995 0 82.902549 27.122439 99.278361 68.573714l8.187906 21.493253 22.004997-5.629185c48.103948-12.281859 94.16092-31.216392 137.147427-56.803599l19.446276-11.770115-9.211394-20.981509c-18.422789-39.916042-9.723138-87.508246 21.493254-118.212893s78.296852-39.404298 118.724637-22.004998l20.981509 9.211394 11.770115-19.446276c25.587206-42.986507 44.521739-89.043478 56.803599-137.147427l5.629185-22.004997-20.981509-8.187906c-41.963018-15.864068-69.597201-55.268366-69.085458-99.278361z m-6.652673 222.096951c-13.817091-3.582209-28.145927-5.629185-42.474763-5.629185-41.963018 0-81.87906 16.375812-111.048476 46.056972-40.427786 39.916042-55.78011 98.766617-40.427786 153.523238-27.122439 14.328836-55.78011 26.098951-84.949525 35.310345-27.634183-49.63918-80.343828-80.343828-137.147426-79.832084-57.827086 0-109.001499 30.704648-137.147426 79.832084-29.681159-8.69965-57.827086-20.469765-84.949526-35.310345 14.84058-54.756622-0.511744-113.095452-40.427786-153.523238-39.916042-39.916042-98.766617-55.268366-153.523238-40.427787-14.328836-27.122439-26.098951-55.78011-35.310345-84.949525 49.63918-27.634183 80.343828-80.343828 79.832084-137.147426 0-57.827086-30.704648-109.001499-79.832084-137.147426 8.69965-29.681159 20.981509-57.827086 35.310345-84.949526 13.817091 4.093953 28.145927 5.629185 41.963018 5.629186 41.963018 0 81.87906-16.375812 111.048476-46.056972 40.427786-39.916042 55.78011-98.766617 40.427786-153.523238 27.122439-14.328836 55.78011-26.098951 84.949525-35.310345 27.634183 49.63918 80.343828 80.343828 137.147427 79.832084 57.827086 0 109.001499-30.704648 137.147426-79.832084 29.681159 8.69965 57.827086 20.469765 84.949525 35.310345-14.84058 54.756622 0.511744 113.095452 39.916042 153.523238 39.916042 39.916042 98.766617 55.268366 153.523239 40.427786 14.328836 27.122439 26.098951 55.78011 35.310344 84.949526-49.63918 27.634183-80.343828 80.343828-79.832084 137.147426 0 57.827086 30.704648 109.513243 79.832084 137.147426-8.187906 29.169415-19.958021 57.827086-34.286856 84.949525z"  /><path d="M511.744128 358.22089c-84.437781 0-153.523238 69.085457-153.523238 153.523238s69.085457 153.523238 153.523238 153.523238 153.523238-69.085457 153.523238-153.523238-69.085457-153.523238-153.523238-153.523238z m0 257.407296c-57.315342 0-103.372314-46.568716-103.884058-103.884058 0-57.315342 46.568716-103.884058 103.884058-103.884058s103.884058 46.568716 103.884058 103.884058c-0.511744 57.315342-46.568716 103.372314-103.884058 103.884058z"  /></svg>