<?xml version="1.0" standalone="no"?><!DOCTYPE svg PUBLIC "-//W3C//DTD SVG 1.1//EN" "http://www.w3.org/Graphics/SVG/1.1/DTD/svg11.dtd"><svg class="icon" width="20px" height="20.00px" viewBox="0 0 1024 1024" version="1.1" xmlns="http://www.w3.org/2000/svg"><path d="M0 906.450677V117.498125C0 52.579771 52.579771 0 117.498125 0h789.00375C971.369032 0 1023.948803 52.579771 1023.948803 117.498125v789.00375c0 64.867157-52.579771 117.498125-117.498126 117.498125H117.498125C52.579771 1023.948803 0 971.369032 0 906.450677z m418.59027-161.425528c-23.550822-23.60202-46.487276-46.538473-67.78541-67.836608-92.564972 92.616169-185.027549 185.027549-276.414979 276.466176h879.469626c0.153592-3.020649 0.358382-5.478126 0.358382-7.884406 0-88.059597 0.102395-176.119194-0.20479-264.178791 0-4.556572-1.9967-9.625119-4.505374-13.567321-66.454277-103.726014-133.113344-207.349633-199.721214-310.973252-1.587121-2.457477-3.276636-4.761362-5.273337-7.730813l-325.922904 395.705015zM139.666617 278.565272c-0.665567 76.79616 61.79531 139.871406 138.898655 140.383381 76.693765 0.511974 139.769012-61.948903 140.434578-139.052248 0.665567-76.693765-61.744113-139.564222-139.103445-140.178591-76.949753-0.614369-139.564222 61.385731-140.229788 138.847458z" /></svg>