<?xml version="1.0" standalone="no"?><!DOCTYPE svg PUBLIC "-//W3C//DTD SVG 1.1//EN" "http://www.w3.org/Graphics/SVG/1.1/DTD/svg11.dtd"><svg class="icon"  viewBox="0 0 1024 1024" version="1.1" xmlns="http://www.w3.org/2000/svg"><path  d="M861.7 296.7c16 0 29-13 29-29V125.8c0-16-13-29-29-29H353.9c-120.3 0-218.1 97.8-218.1 218.1v582.8c0 16 13 29 29 29h507.8c120.3 0 218.1-97.8 218.1-218.1V405.9c0-16-13-29-29-29s-29 13-29 29v302.8c0 88.2-71.8 160-160 160H193.8V314.9c0-88.2 71.8-160 160-160h478.8v112.9c0.1 15.9 13.1 28.9 29.1 28.9z"  /><path  d="M333.6 358.4h263.2c16 0 29-13 29-29s-13-29-29-29H333.6c-16 0-29 13-29 29-0.1 16 12.9 29 29 29zM333.6 665.1c-16 0-29 13-29 29s13 29 29 29h263.2c16 0 29-13 29-29s-13-29-29-29H333.6zM722 511.8c0-16-13-29-29-29H333.6c-16 0-29 13-29 29s13 29 29 29h359.3c16.1 0 29.1-13 29.1-29z"  /></svg>