<?xml version="1.0" standalone="no"?><!DOCTYPE svg PUBLIC "-//W3C//DTD SVG 1.1//EN" "http://www.w3.org/Graphics/SVG/1.1/DTD/svg11.dtd"><svg class="icon" width="20px" height="20.00px" viewBox="0 0 1024 1024" version="1.1" xmlns="http://www.w3.org/2000/svg"><path d="M834.2 728.3l-83.9-83.8c-6-6.6-14.7-10.4-23.7-10.4s-17.6 3.8-23.7 10.4L619 728.3c-11.3 11.3-11.3 29.6 0 41s29.6 11.3 41 0l37.7-37.6V899c0 16 13 29 29 29s29-13 29-29V731.6l37.7 37.6c5.7 5.6 13.1 8.5 20.5 8.5s14.8-2.8 20.5-8.5c11.1-11.3 11.1-29.6-0.2-40.9zM544.1 396.3h-207c-16 0-29 13-29 29s13 29 29 29H544c16 0 29-13 29-29 0-16.1-12.9-29-28.9-29zM544.1 562.8h-207c-16 0-29 13-29 29s13 29 29 29H544c16 0 29-13 29-29s-12.9-29-28.9-29z"  /><path d="M549.5 870.1H235.1V155.9H612V301c0 9.7 3.8 18.8 10.6 25.6 6.8 6.8 15.9 10.6 25.6 10.6h0.1l134.1-0.2v228.9c0 16 13 29 29 29s29-13 29-29v-287h-0.1L669.9 98.1V98H235.1c-31.9 0-57.9 26-57.9 57.9v714.2c0 31.9 26 57.9 57.9 57.9h314.4c16 0 29-13 29-29s-13-28.9-29-28.9z m211.2-591l-90.9 0.2v-96.7l90.9 96.5z"  /></svg>