<?xml version="1.0" standalone="no"?><!DOCTYPE svg PUBLIC "-//W3C//DTD SVG 1.1//EN" "http://www.w3.org/Graphics/SVG/1.1/DTD/svg11.dtd"><svg class="icon" width="20px" height="20.00px" viewBox="0 0 1024 1024" version="1.1" xmlns="http://www.w3.org/2000/svg"><path d="M757.8624 160.1024H119.8592C53.6576 160.1024 0 213.76 0 279.9616v418.4064c0 66.304 53.6576 120.0128 119.8592 120.0128h99.584v164.0448c0 22.8864 26.0096 35.8912 44.288 22.1696L512 818.3808h245.8624c66.304 0 119.8592-53.6576 119.8592-119.8592V279.9616c0-66.2016-53.6576-119.8592-119.8592-119.8592zM221.3376 547.328c-30.2592 0-54.784-24.5248-54.784-54.784 0-30.2592 24.5248-54.784 54.784-54.784s54.784 24.5248 54.784 54.784c0.1536 30.1568-24.5248 54.784-54.784 54.784z m219.4432 0c-30.2592 0-54.784-24.5248-54.784-54.784 0-30.2592 24.5248-54.784 54.784-54.784 30.2592 0 54.784 24.5248 54.784 54.784 0.1536 30.1568-24.4736 54.784-54.784 54.784z m219.4944 0c-30.2592 0-54.784-24.5248-54.784-54.784 0-30.2592 24.5248-54.784 54.784-54.784s54.784 24.5248 54.784 54.784c0 30.1568-24.5248 54.784-54.784 54.784z"  /><path d="M790.272 123.5456c68.4544 0 124.0064 55.552 124.0064 124.0064v424.1408c61.44-5.12 109.7216-56.576 109.7216-119.5008V174.4896c0-88.7296-71.936-160.6656-160.6656-160.6656H266.1376c-62.6688 0-114.2272 48.1792-119.5008 109.7216h643.6352z"  /></svg>