<?xml version="1.0" standalone="no"?><!DOCTYPE svg PUBLIC "-//W3C//DTD SVG 1.1//EN" "http://www.w3.org/Graphics/SVG/1.1/DTD/svg11.dtd"><svg class="icon" viewBox="0 0 1024 1024" version="1.1" xmlns="http://www.w3.org/2000/svg"><path  d="M918.4 292.7c-0.3-0.5-0.5-1-0.8-1.5-0.1-0.2-0.2-0.3-0.3-0.4-0.4-0.6-0.8-1.1-1.2-1.7-0.1-0.1-0.2-0.2-0.2-0.3-10.5-14.4-27.5-23.8-46.6-23.8h-69.5c-15.9 0-28.9 12.9-28.9 28.9 0 15.9 12.9 28.9 28.9 28.9h15.8l-11.3 7.3c-13.4 8.6-17.3 26.5-8.6 39.9 5.5 8.6 14.8 13.2 24.3 13.2 5.4 0 10.8-1.5 15.6-4.6l33.7-21.7v461.8H154.6v-462l306.9 197.8c15.3 9.8 32.8 14.8 50.3 14.8s35-4.9 50.3-14.8l63-40.6c13.4-8.6 17.3-26.5 8.6-39.9-8.6-13.4-26.5-17.3-39.9-8.6l-63 40.6a35.07 35.07 0 0 1-38.1 0L208.3 322.6h335.1c15.9 0 28.9-12.9 28.9-28.9 0-15.9-12.9-28.9-28.9-28.9H154.6c-19.2 0-36.1 9.4-46.6 23.8l-0.3 0.3c-0.4 0.6-0.8 1.1-1.2 1.7-0.1 0.2-0.2 0.3-0.3 0.5l-0.9 1.5c-5.3 8.7-8.5 19-8.5 29.9v495.9c0 31.8 25.9 57.7 57.7 57.7H869c31.8 0 57.7-25.9 57.7-57.7V322.6c0.2-10.9-3-21.2-8.3-29.9z"  /><path  d="M574.3 376.1l66.2 61.2c0.2 0.2 0.4 0.3 0.6 0.5 0.3 0.3 0.7 0.6 1.1 0.9 0.4 0.3 0.8 0.6 1.1 0.9 0.4 0.3 0.7 0.5 1.1 0.7 0.4 0.3 0.8 0.5 1.3 0.8 0.4 0.2 0.7 0.4 1.1 0.6 0.4 0.2 0.9 0.4 1.4 0.7 0.4 0.2 0.8 0.3 1.1 0.5 0.5 0.2 0.9 0.4 1.4 0.5 0.4 0.1 0.8 0.3 1.2 0.4 0.5 0.1 1 0.3 1.5 0.4l1.2 0.3c0.6 0.1 1.1 0.2 1.7 0.3 0.3 0 0.7 0.1 1 0.1 0.9 0.1 1.9 0.1 2.8 0.1 0.4 0 0.7 0 1.1-0.1 0.6 0 1.2 0 1.8-0.1h0.1c1 0.1 2 0.2 3 0.2 7 0 14-2.5 19.6-7.7l66.2-61.2c11.7-10.8 12.4-29.1 1.6-40.8-10.8-11.7-29.1-12.4-40.8-1.6L689 355.6V176.8c0-15.9-12.9-28.9-28.9-28.9s-28.9 12.9-28.9 28.9V350l-17.7-16.4c-11.7-10.8-30-10.1-40.8 1.6-10.9 11.8-10.1 30.1 1.6 40.9z"  /></svg>