<?xml version="1.0" standalone="no"?><!DOCTYPE svg PUBLIC "-//W3C//DTD SVG 1.1//EN" "http://www.w3.org/Graphics/SVG/1.1/DTD/svg11.dtd"><svg class="icon" viewBox="0 0 1024 1024" version="1.1" xmlns="http://www.w3.org/2000/svg"><path  d="M711.7 264.6H314.4c-16.1 0-29.1 13-29.1 29.1s13 29.1 29.1 29.1h397.3c16.1 0 29.1-13 29.1-29.1s-13.1-29.1-29.1-29.1zM711.7 418.9H314.4c-16.1 0-29.1 13-29.1 29.1s13 29.1 29.1 29.1h397.3c16.1 0 29.1-13 29.1-29.1s-13.1-29.1-29.1-29.1zM513 573.1H314.4c-16.1 0-29.1 13-29.1 29.1s13 29.1 29.1 29.1H513c16.1 0 29.1-13 29.1-29.1s-13-29.1-29.1-29.1z"  /><path  d="M908.6 903.4l0.3-1.5c0.1-0.5 0.2-1 0.2-1.5 0.1-0.4 0.1-0.8 0.1-1.3 0-0.6 0.1-1.2 0.1-1.8v-707c0-52.1-42.4-94.6-94.6-94.6H211.1c-52.1 0-94.6 42.4-94.6 94.6v706.9c0 0.6 0 1.2 0.1 1.8 0 0.4 0.1 0.8 0.1 1.2 0.1 0.5 0.1 1 0.2 1.6l0.3 1.5 0.3 1.2c0.2 0.6 0.3 1.1 0.5 1.7 0.1 0.2 0.1 0.4 0.2 0.6 0 0.1 0.1 0.2 0.1 0.3 0.5 1.3 1.1 2.5 1.7 3.7 0.1 0.2 0.2 0.4 0.4 0.6 0.6 1 1.2 1.9 1.9 2.8 0.2 0.2 0.3 0.4 0.5 0.7 0.8 1 1.6 1.9 2.5 2.7 0.2 0.2 0.5 0.5 0.8 0.7 0.9 0.8 1.8 1.6 2.8 2.2 0.1 0 0.1 0.1 0.2 0.1 1.1 0.7 2.2 1.4 3.4 2 0.2 0.1 0.4 0.2 0.7 0.3 2.3 1.1 4.8 1.9 7.4 2.3 0.3 0.1 0.6 0.1 1 0.1 1.2 0.2 2.4 0.3 3.6 0.3h0.3c0.9 0 1.9-0.1 2.8-0.2 0.3 0 0.5-0.1 0.7-0.1 0.6-0.1 1.3-0.2 1.9-0.3 0.4-0.1 0.8-0.2 1.3-0.3 0.4-0.1 0.9-0.2 1.3-0.3 0.5-0.1 1-0.3 1.5-0.5 0.2-0.1 0.4-0.1 0.7-0.2L513 789.5l357.1 134.4c0.2 0.1 0.4 0.1 0.6 0.2l1.8 0.6 1.2 0.3 1.5 0.3c0.5 0.1 1 0.2 1.5 0.2 0.4 0.1 0.8 0.1 1.3 0.1 0.6 0 1.2 0.1 1.8 0.1h1.2c0.6 0 1.2 0 1.8-0.1 0.4 0 0.8-0.1 1.2-0.1 0.5-0.1 1-0.1 1.5-0.2s0.9-0.2 1.4-0.3l1.2-0.3c0.5-0.1 1.1-0.3 1.6-0.5 0.3-0.1 0.7-0.2 1-0.4 0.6-0.2 1.1-0.4 1.7-0.7 0.3-0.1 0.6-0.3 0.9-0.4 0.5-0.3 1-0.5 1.5-0.8 0.4-0.2 0.7-0.4 1-0.6 0.4-0.3 0.9-0.5 1.3-0.8l1.2-0.9c0.3-0.3 0.7-0.5 1-0.8 0.4-0.4 0.8-0.7 1.2-1.1l0.8-0.8c0.4-0.4 0.8-0.8 1.2-1.3 0.2-0.3 0.5-0.6 0.7-0.8 0.3-0.4 0.6-0.8 1-1.3 0.3-0.4 0.5-0.7 0.7-1.1 0.2-0.4 0.5-0.8 0.7-1.2 0.3-0.5 0.5-0.9 0.8-1.4 0.2-0.3 0.3-0.7 0.5-1 0.3-0.6 0.5-1.1 0.7-1.7 0.1-0.1 0.1-0.3 0.2-0.4 0.1-0.2 0.1-0.4 0.2-0.6l0.6-1.8c-0.1-0.1-0.1-0.5 0-0.9zM502.8 731.2l-328 123.4V190.3c0-20.1 16.3-36.4 36.4-36.4H815c20.1 0 36.4 16.3 36.4 36.4v664.3l-328-123.4c-6.8-2.5-14-2.5-20.6 0z"  /></svg>