<?xml version="1.0" standalone="no"?><!DOCTYPE svg PUBLIC "-//W3C//DTD SVG 1.1//EN" "http://www.w3.org/Graphics/SVG/1.1/DTD/svg11.dtd"><svg class="icon" width="20px" height="20.00px" viewBox="0 0 1024 1024" version="1.1" xmlns="http://www.w3.org/2000/svg"><path d="M631.467 640c-25.6 25.6-59.734 38.4-98.134 38.4S460.8 665.6 435.2 640l-85.333-81.067-179.2 162.134v25.6c0 34.133 29.866 64 64 64h593.066c38.4 0 64-29.867 64-64V716.8l-179.2-162.133L631.467 640M896 674.133V384L738.133 537.6 896 674.133"  /><path d="M170.667 379.733V678.4l157.866-145.067-157.866-153.6M832 256H238.933c-38.4 0-68.266 29.867-68.266 68.267v12.8L460.8 622.933c21.333 21.334 46.933 29.867 72.533 29.867 29.867 0 55.467-12.8 72.534-29.867L896 337.067v-12.8c0-38.4-29.867-68.267-64-68.267"  /></svg>