<?xml version="1.0" standalone="no"?><!DOCTYPE svg PUBLIC "-//W3C//DTD SVG 1.1//EN" "http://www.w3.org/Graphics/SVG/1.1/DTD/svg11.dtd"><svg class="icon" width="20px" height="20.00px" viewBox="0 0 1024 1024" version="1.1" xmlns="http://www.w3.org/2000/svg"><path d="M329.76 446.656a260.096 260.096 0 0 0 83.584 55.872A259.84 259.84 0 0 0 512 522.144a259.648 259.648 0 0 0 98.624-19.616 259.936 259.936 0 0 0 83.616-55.872 259.84 259.84 0 0 0 55.872-83.616 259.936 259.936 0 0 0 19.616-98.624 259.776 259.776 0 0 0-19.616-98.624 260.064 260.064 0 0 0-55.872-83.648 260.256 260.256 0 0 0-83.616-55.84 262.368 262.368 0 0 0-197.248 0 260.544 260.544 0 0 0-83.648 55.84 260.48 260.48 0 0 0-55.808 83.616 260.064 260.064 0 0 0-19.616 98.656 259.84 259.84 0 0 0 19.616 98.624 259.68 259.68 0 0 0 55.872 83.616z m388.768 134.432H305.472a218.176 218.176 0 0 0-217.92 217.92 218.176 218.176 0 0 0 217.92 217.92h413.056a218.176 218.176 0 0 0 217.92-217.92 218.176 218.176 0 0 0-217.92-217.92z" /></svg>