<?xml version="1.0" standalone="no"?><!DOCTYPE svg PUBLIC "-//W3C//DTD SVG 1.1//EN" "http://www.w3.org/Graphics/SVG/1.1/DTD/svg11.dtd"><svg class="icon" width="20px" height="20.00px" viewBox="0 0 1024 1024" version="1.1" xmlns="http://www.w3.org/2000/svg"><path d="M708.096 454.656s3.072-34.304-34.304-34.304H334.848c-34.304 0-34.304 34.304-34.304 34.304v183.296s0 46.592 46.592 46.592h317.44c49.664 0 43.52-43.52 43.52-46.592V454.656z m-236.544 183.296H347.136V466.944h124.416v171.008z m133.632-68.608c0 9.216-9.216 22.016-22.016 22.016H527.36c-9.216 0-22.016-9.216-22.016-22.016 0-9.216 9.216-22.016 22.016-22.016h56.32c12.288 0.512 24.576 12.8 21.504 22.016z m37.376-58.88h-112.128c-9.216 0-22.016-9.216-22.016-22.016 0-9.216 9.216-22.016 22.016-22.016h112.128c9.216 0 22.016 12.288 22.016 22.016s-9.216 22.016-22.016 22.016z"  /><path d="M512 0C229.376 0 0 229.376 0 512s229.376 512 512 512 512-229.376 512-512S794.624 0 512 0z m-15.36 292.864h22.016c9.216 0 12.288 6.144 12.288 12.288 0 9.216-12.288 46.592-12.288 46.592H496.64s-12.288-40.448-12.288-46.592c-0.512-9.216 5.632-12.288 12.288-12.288z m264.192 348.16s0 90.112-90.112 90.112H353.28c-90.112 0-90.112-90.112-90.112-90.112V423.424c0-74.752 31.232-90.112 90.112-99.328l99.328-15.36 22.016 68.608h68.608l22.016-68.608 99.328 15.36c46.592 9.216 90.112 22.016 96.256 99.328v217.6z"  /></svg>