<?xml version="1.0" standalone="no"?><!DOCTYPE svg PUBLIC "-//W3C//DTD SVG 1.1//EN" "http://www.w3.org/Graphics/SVG/1.1/DTD/svg11.dtd"><svg class="icon" width="20px" height="20.00px" viewBox="0 0 1024 1024" version="1.1" xmlns="http://www.w3.org/2000/svg"><path d="M886.443 258.39L764.928 137.215l-412.33 412.33L474.111 670.72l412.33-412.33z m0 0"  /><path d="M937.301 309.248l-33.109 33.11v595.967H86.357V120.832h593.238l84.309-84.31H2.048v986.113H988.16V258.048l-50.859 51.2z m0 0"  /><path d="M446.464 696.661L329.728 579.925 277.504 742.4l168.96-45.739z m561.152-632.49l-48.47-48.47c-19.455-19.456-53.247-19.456-72.703 0l-96.939 96.939 121.173 121.173 96.939-96.938c19.456-19.115 19.456-53.248 0-72.704z m0 0"  /></svg>