<?xml version="1.0" standalone="no"?><!DOCTYPE svg PUBLIC "-//W3C//DTD SVG 1.1//EN" "http://www.w3.org/Graphics/SVG/1.1/DTD/svg11.dtd"><svg class="icon"  viewBox="0 0 1024 1024" version="1.1" xmlns="http://www.w3.org/2000/svg"><path  d="M790.8 484.6c-15.9 0-28.9 12.9-28.9 28.9v357H199.4V156.4h165.9c15.9 0 28.9-12.9 28.9-28.9s-12.9-28.9-28.9-28.9H199.4c-31.8 0-57.7 25.9-57.7 57.7v714.1c0 31.8 25.9 57.7 57.7 57.7H762c31.8 0 57.7-25.9 57.7-57.7v-357c0-15.9-13-28.8-28.9-28.8z"  /><path  d="M884 332.7c-1.8-15.8-12.8-29.3-27.9-34.2l-119.7-38.8-114.7-150.2c-9.7-12.7-27.8-15.1-40.4-5.4-12.7 9.7-15.1 27.8-5.4 40.4l117.8 154.4c5.1 6.6 11.9 11.5 19.9 14.1l89.3 29-274 164.3 74.6-238.2c4.8-15.2-3.7-31.4-18.9-36.2-15.2-4.8-31.4 3.7-36.2 18.9l-87.9 280.6c-5.1 16.3 0.3 33.7 13.7 44.2 7.4 5.8 16.3 8.8 25.2 8.8 7.2 0 14.5-1.9 21-5.9l344-206.4c13.7-8 21.4-23.6 19.6-39.4zM282.3 532.7c-15.9 0-28.9 12.9-28.9 28.9s12.9 28.9 28.9 28.9h105.5c15.9 0 28.9-12.9 28.9-28.9s-12.9-28.9-28.9-28.9H282.3zM253.4 735.2c0 15.9 12.9 28.9 28.9 28.9h394c15.9 0 28.9-12.9 28.9-28.9s-12.9-28.9-28.9-28.9h-394c-15.9 0.1-28.9 13-28.9 28.9z"  /></svg>